<?xml version="1.0" encoding="UTF-8" standalone="no"?>
<svg
        xmlns:dc="http://purl.org/dc/elements/1.1/"
        xmlns:cc="http://creativecommons.org/ns#"
        xmlns:rdf="http://www.w3.org/1999/02/22-rdf-syntax-ns#"
        xmlns="http://www.w3.org/2000/svg"
        viewBox="140 133 215 240"
        xml:space="preserve"
        id="svg2"
        version="1.1"><metadata
     id="metadata8"><rdf:RDF><cc:Work
         rdf:about=""><dc:format>image/svg+xml</dc:format><dc:type
           rdf:resource="http://purl.org/dc/dcmitype/StillImage" /></cc:Work></rdf:RDF></metadata><defs
     id="defs6"><clipPath
       id="clipPath58"
       clipPathUnits="userSpaceOnUse"><path
         id="path56"
         d="M 0,388.029 H 708.055 V 0 H 0 Z" /></clipPath><clipPath
       id="clipPath146"
       clipPathUnits="userSpaceOnUse"><path
         id="path144"
         d="m 150.758,252.838 h 77.321 V 136.481 h -77.321 z" /></clipPath><clipPath
       id="clipPath182"
       clipPathUnits="userSpaceOnUse"><path
         id="path180"
         d="m 174.854,258.926 h 49.398 v -85.068 h -49.398 z" /></clipPath></defs><g
     transform="matrix(1.3333333,0,0,-1.3333333,0,517.372)"
     id="g10"><g
       transform="translate(120.1447,160.7936)"
       id="g12"><path
         id="path14"
         style="fill:#1b90ff;fill-opacity:1;fill-rule:nonzero;stroke:none"
         d="m 0,0 v 77.492 l 67.11,38.746 67.11,-38.746 V 0 L 67.11,-38.746 Z" /></g><g
       transform="translate(187.2545,287.4234)"
       id="g16"><path
         id="path18"
         style="fill:#89d1ff;fill-opacity:1;fill-rule:nonzero;stroke:none"
         d="m 0,0 -76.11,-43.942 v -87.884 L 0,-175.768 l 76.11,43.942 v 87.884 z m 0,-20.785 58.11,-33.549 v -67.1 L 0,-154.984 l -58.11,33.55 v 67.1 z" /></g><g
       transform="translate(187.2546,287.4234)"
       id="g20"><path
         id="path22"
         style="fill:#000000;fill-opacity:1;fill-rule:nonzero;stroke:none"
         d="m 0,0 -76.11,-43.942 v -87.884 L 0,-175.768 l 76.11,43.942 v 87.884 z m 0,-5.773 71.11,-41.056 v -82.11 L 0,-169.995 l -71.11,41.056 v 82.11 z" /></g>
<g
       transform="translate(187.2546,287.4234)"
       id="g36"><path
         id="path38"
         style="fill:#000000;fill-opacity:1;fill-rule:nonzero;stroke:none"
         d="m 0,0 -76.11,-43.942 v -87.884 L 0,-175.768 l 76.11,43.942 v 87.884 z m 0,-5.773 71.11,-41.056 v -82.11 L 0,-169.995 l -71.11,41.056 v 82.11 z" /></g><g
       transform="translate(129.4664,232.8569)"
       id="g40"><path
         id="path42"
         style="fill:none;stroke:#ffffff;stroke-width:1;stroke-linecap:butt;stroke-linejoin:miter;stroke-miterlimit:10;stroke-dasharray:none;stroke-opacity:1"
         d="M 0,0 37.741,5.929 57.788,31.624 92.235,-42.353" /></g><g
       transform="translate(128.9017,165.8453)"
       id="g44"><path
         id="path46"
         style="fill:none;stroke:#ffffff;stroke-width:1;stroke-linecap:butt;stroke-linejoin:miter;stroke-miterlimit:10;stroke-dasharray:none;stroke-opacity:1"
         d="M 0,0 9.788,43.012 58.353,-33.128 71.906,0.376 116.329,0.188 93.365,22.965 116.329,67.2" /></g><g
       transform="translate(138.6899,208.857)"
       id="g48"><path
         id="path50"
         style="fill:none;stroke:#ffffff;stroke-width:1;stroke-linecap:butt;stroke-linejoin:miter;stroke-miterlimit:10;stroke-dasharray:none;stroke-opacity:1"
         d="M 0,0 28.518,29.929 83.576,-20.047" /></g><g
       id="g52"><g
         clip-path="url(#clipPath58)"
         id="g54"><g
           transform="translate(205.9985,166.2218)"
           id="g60"><path
             id="path62"
             style="fill:#ffffff;fill-opacity:1;fill-rule:nonzero;stroke:none"
             d="m 0,0 c 0,-2.867 -2.324,-5.191 -5.191,-5.191 -2.867,0 -5.191,2.324 -5.191,5.191 0,2.867 2.324,5.191 5.191,5.191 C -2.324,5.191 0,2.867 0,0" /></g><g
           transform="translate(205.9985,166.2218)"
           id="g64"><path
             id="path66"
             style="fill:none;stroke:#ffffff;stroke-width:2.10599995;stroke-linecap:butt;stroke-linejoin:miter;stroke-miterlimit:10;stroke-dasharray:none;stroke-opacity:1"
             d="m 0,0 c 0,-2.867 -2.324,-5.191 -5.191,-5.191 -2.867,0 -5.191,2.324 -5.191,5.191 0,2.867 2.324,5.191 5.191,5.191 C -2.324,5.191 0,2.867 0,0 Z" /></g><g
           transform="translate(136.9309,232.8569)"
           id="g68"><path
             id="path70"
             style="fill:#ffffff;fill-opacity:1;fill-rule:nonzero;stroke:none"
             d="m 0,0 c 0,-4.122 -3.342,-7.464 -7.464,-7.464 -4.123,0 -7.465,3.342 -7.465,7.464 0,4.122 3.342,7.464 7.465,7.464 C -3.342,7.464 0,4.122 0,0" /></g><g
           transform="translate(136.9309,232.8569)"
           id="g72"><path
             id="path74"
             style="fill:none;stroke:#ffffff;stroke-width:2.10599995;stroke-linecap:butt;stroke-linejoin:miter;stroke-miterlimit:10;stroke-dasharray:none;stroke-opacity:1"
             d="m 0,0 c 0,-4.122 -3.342,-7.464 -7.464,-7.464 -4.123,0 -7.465,3.342 -7.465,7.464 0,4.122 3.342,7.464 7.465,7.464 C -3.342,7.464 0,4.122 0,0 Z" /></g><g
           transform="translate(194.6638,266.2311)"
           id="g76"><path
             id="path78"
             style="fill:#ffffff;fill-opacity:1;fill-rule:nonzero;stroke:none"
             d="m 0,0 c 0,-4.122 -3.342,-7.464 -7.464,-7.464 -4.123,0 -7.465,3.342 -7.465,7.464 0,4.122 3.342,7.464 7.465,7.464 C -3.342,7.464 0,4.122 0,0" /></g><g
           transform="translate(194.6638,266.2311)"
           id="g80"><path
             id="path82"
             style="fill:none;stroke:#ffffff;stroke-width:2.10599995;stroke-linecap:butt;stroke-linejoin:miter;stroke-miterlimit:10;stroke-dasharray:none;stroke-opacity:1"
             d="m 0,0 c 0,-4.122 -3.342,-7.464 -7.464,-7.464 -4.123,0 -7.465,3.342 -7.465,7.464 0,4.122 3.342,7.464 7.465,7.464 C -3.342,7.464 0,4.122 0,0 Z" /></g><g
           transform="translate(252.6953,233.0452)"
           id="g84"><path
             id="path86"
             style="fill:#ffffff;fill-opacity:1;fill-rule:nonzero;stroke:none"
             d="m 0,0 c 0,-4.122 -3.342,-7.464 -7.464,-7.464 -4.123,0 -7.465,3.342 -7.465,7.464 0,4.122 3.342,7.464 7.465,7.464 C -3.342,7.464 0,4.122 0,0" /></g><g
           transform="translate(252.6953,233.0452)"
           id="g88"><path
             id="path90"
             style="fill:none;stroke:#ffffff;stroke-width:2.10599995;stroke-linecap:butt;stroke-linejoin:miter;stroke-miterlimit:10;stroke-dasharray:none;stroke-opacity:1"
             d="m 0,0 c 0,-4.122 -3.342,-7.464 -7.464,-7.464 -4.123,0 -7.465,3.342 -7.465,7.464 0,4.122 3.342,7.464 7.465,7.464 C -3.342,7.464 0,4.122 0,0 Z" /></g><g
           transform="translate(252.6953,166.0335)"
           id="g92"><path
             id="path94"
             style="fill:#ffffff;fill-opacity:1;fill-rule:nonzero;stroke:none"
             d="m 0,0 c 0,-4.122 -3.342,-7.464 -7.464,-7.464 -4.123,0 -7.465,3.342 -7.465,7.464 0,4.122 3.342,7.464 7.465,7.464 C -3.342,7.464 0,4.122 0,0" /></g><g
           transform="translate(252.6953,166.0335)"
           id="g96"><path
             id="path98"
             style="fill:none;stroke:#ffffff;stroke-width:2.10599995;stroke-linecap:butt;stroke-linejoin:miter;stroke-miterlimit:10;stroke-dasharray:none;stroke-opacity:1"
             d="m 0,0 c 0,-4.122 -3.342,-7.464 -7.464,-7.464 -4.123,0 -7.465,3.342 -7.465,7.464 0,4.122 3.342,7.464 7.465,7.464 C -3.342,7.464 0,4.122 0,0 Z" /></g><g
           transform="translate(194.719,132.7171)"
           id="g100"><path
             id="path102"
             style="fill:#ffffff;fill-opacity:1;fill-rule:nonzero;stroke:none"
             d="m 0,0 c 0,-4.122 -3.342,-7.464 -7.464,-7.464 -4.123,0 -7.465,3.342 -7.465,7.464 0,4.122 3.342,7.464 7.465,7.464 C -3.342,7.464 0,4.122 0,0" /></g><g
           transform="translate(194.719,132.7171)"
           id="g104"><path
             id="path106"
             style="fill:none;stroke:#ffffff;stroke-width:2.10599995;stroke-linecap:butt;stroke-linejoin:miter;stroke-miterlimit:10;stroke-dasharray:none;stroke-opacity:1"
             d="m 0,0 c 0,-4.122 -3.342,-7.464 -7.464,-7.464 -4.123,0 -7.465,3.342 -7.465,7.464 0,4.122 3.342,7.464 7.465,7.464 C -3.342,7.464 0,4.122 0,0 Z" /></g><g
           transform="translate(136.3662,165.8453)"
           id="g108"><path
             id="path110"
             style="fill:#ffffff;fill-opacity:1;fill-rule:nonzero;stroke:none"
             d="m 0,0 c 0,-4.122 -3.342,-7.464 -7.464,-7.464 -4.123,0 -7.465,3.342 -7.465,7.464 0,4.122 3.342,7.464 7.465,7.464 C -3.342,7.464 0,4.122 0,0" /></g><g
           transform="translate(136.3662,165.8453)"
           id="g112"><path
             id="path114"
             style="fill:none;stroke:#ffffff;stroke-width:2.10599995;stroke-linecap:butt;stroke-linejoin:miter;stroke-miterlimit:10;stroke-dasharray:none;stroke-opacity:1"
             d="m 0,0 c 0,-4.122 -3.342,-7.464 -7.464,-7.464 -4.123,0 -7.465,3.342 -7.465,7.464 0,4.122 3.342,7.464 7.465,7.464 C -3.342,7.464 0,4.122 0,0 Z" /></g><g
           transform="translate(228.6552,188.81)"
           id="g116"><path
             id="path118"
             style="fill:#ffffff;fill-opacity:1;fill-rule:nonzero;stroke:none"
             d="m 0,0 c 0,-3.529 -2.86,-6.389 -6.389,-6.389 -3.528,0 -6.389,2.86 -6.389,6.389 0,3.528 2.861,6.389 6.389,6.389 C -2.86,6.389 0,3.528 0,0" /></g><g
           transform="translate(228.6552,188.81)"
           id="g120"><path
             id="path122"
             style="fill:none;stroke:#ffffff;stroke-width:2.10599995;stroke-linecap:butt;stroke-linejoin:miter;stroke-miterlimit:10;stroke-dasharray:none;stroke-opacity:1"
             d="m 0,0 c 0,-3.529 -2.86,-6.389 -6.389,-6.389 -3.528,0 -6.389,2.86 -6.389,6.389 0,3.528 2.861,6.389 6.389,6.389 C -2.86,6.389 0,3.528 0,0 Z" /></g><g
           transform="translate(142.683,208.857)"
           id="g124"><path
             id="path126"
             style="fill:#ffffff;fill-opacity:1;fill-rule:nonzero;stroke:none"
             d="m 0,0 c 0,-2.205 -1.788,-3.993 -3.993,-3.993 -2.205,0 -3.993,1.788 -3.993,3.993 0,2.205 1.788,3.993 3.993,3.993 C -1.788,3.993 0,2.205 0,0" /></g><g
           transform="translate(142.683,208.857)"
           id="g128"><path
             id="path130"
             style="fill:none;stroke:#ffffff;stroke-width:2.10599995;stroke-linecap:butt;stroke-linejoin:miter;stroke-miterlimit:10;stroke-dasharray:none;stroke-opacity:1"
             d="m 0,0 c 0,-2.205 -1.788,-3.993 -3.993,-3.993 -2.205,0 -3.993,1.788 -3.993,3.993 0,2.205 1.788,3.993 3.993,3.993 C -1.788,3.993 0,2.205 0,0 Z" /></g><g
           transform="translate(172.7978,238.7863)"
           id="g132"><path
             id="path134"
             style="fill:#ffffff;fill-opacity:1;fill-rule:nonzero;stroke:none"
             d="m 0,0 c 0,-3.087 -2.503,-5.59 -5.59,-5.59 -3.088,0 -5.591,2.503 -5.591,5.59 0,3.087 2.503,5.59 5.591,5.59 C -2.503,5.59 0,3.087 0,0" /></g><g
           transform="translate(172.7978,238.7863)"
           id="g136"><path
             id="path138"
             style="fill:none;stroke:#ffffff;stroke-width:2.10599995;stroke-linecap:butt;stroke-linejoin:miter;stroke-miterlimit:10;stroke-dasharray:none;stroke-opacity:1"
             d="m 0,0 c 0,-3.087 -2.503,-5.59 -5.59,-5.59 -3.088,0 -5.591,2.503 -5.591,5.59 0,3.087 2.503,5.59 5.591,5.59 C -2.503,5.59 0,3.087 0,0 Z" /></g><g
           id="g140"><g
             id="g142" /><g
             id="g154"><g
               style="opacity:0.30999804"
               id="g152"
               clip-path="url(#clipPath146)"><g
                 id="g150"
                 transform="translate(211.1496,193.7828)"><path
                   id="path148"
                   style="fill:#000000;fill-opacity:1;fill-rule:nonzero;stroke:none"
                   d="m 0,0 c 0.312,0.496 0.62,0.992 0.915,1.485 15.451,25.784 20.616,51.098 11.535,56.54 1.119,-0.116 -1.165,0.698 -0.25,0.149 0.042,-0.025 0.078,-0.057 0.12,-0.083 -9.138,5.215 -28.909,-11.235 -44.289,-36.901 -0.295,-0.493 -0.587,-0.997 -0.878,-1.507 -0.733,0.836 -1.944,1.247 -3.166,0.708 -8.095,-3.57 -20.682,-11.939 -24.324,-30.216 -0.426,-2.139 1.704,-3.904 3.728,-3.091 0.937,0.377 2.021,0.754 3.249,1.095 2.825,0.786 5.272,0.858 6.908,0.762 0.251,-0.015 0.495,0.013 0.732,0.062 -0.191,-1.381 0.216,-2.869 1.037,-4.025 -3.216,-2.544 -6.593,-5.935 -9.094,-10.254 -8.007,-13.825 -2.882,-32.026 -2.882,-32.026 0,0 18.468,4.063 26.884,17.644 2.629,4.242 4.026,8.819 4.752,12.854 1.407,-0.178 2.911,0.164 4.039,0.984 0.069,-0.232 0.159,-0.46 0.29,-0.674 0.857,-1.398 1.947,-3.59 2.587,-6.451 0.278,-1.245 0.456,-2.378 0.566,-3.383 0.237,-2.167 2.799,-3.213 4.483,-1.829 C 1.343,-26.327 2.787,-11.28 2.118,-2.459 2.017,-1.127 1.083,-0.252 0,0" /></g></g></g></g><g
           transform="translate(183.1493,185.3307)"
           id="g156"><path
             id="path158"
             style="fill:#ffc933;fill-opacity:1;fill-rule:nonzero;stroke:none"
             d="m 0,0 c 0,0 1.507,-13.362 -5.352,-24.43 -8.415,-13.58 -26.883,-17.644 -26.883,-17.644 0,0 -5.125,18.202 2.882,32.027 6.525,11.267 19.019,16.24 19.019,16.24 z" /></g><g
           transform="translate(183.1493,185.3307)"
           id="g160"><path
             id="path162"
             style="fill:none;stroke:#000000;stroke-width:2.06500006;stroke-linecap:butt;stroke-linejoin:miter;stroke-miterlimit:10;stroke-dasharray:none;stroke-opacity:1"
             d="m 0,0 c 0,0 1.507,-13.362 -5.352,-24.43 -8.415,-13.58 -26.883,-17.644 -26.883,-17.644 0,0 -5.125,18.202 2.882,32.027 6.525,11.267 19.019,16.24 19.019,16.24 z" /></g><g
           transform="translate(179.9892,185.1858)"
           id="g164"><path
             id="path166"
             style="fill:#e76500;fill-opacity:1;fill-rule:nonzero;stroke:none"
             d="m 0,0 c 0,0 -0.013,-8.951 -4.919,-16.925 -6.019,-9.784 -16.664,-12.503 -16.664,-12.503 0,0 -2.623,10.67 3.166,20.591 4.719,8.087 12.606,12.319 12.606,12.319 z" /></g><g
           transform="translate(180.6168,174.3891)"
           id="g168"><path
             id="path170"
             style="fill:#89d1ff;fill-opacity:1;fill-rule:nonzero;stroke:none"
             d="m 0,0 c 1.995,-1.196 4.953,-0.809 6.574,0.86 0,0 13.685,14.091 21.298,26.795 15.451,25.784 20.615,51.098 11.534,56.54 -9.08,5.441 -28.968,-11.05 -44.419,-36.835 -7.612,-12.703 -13.585,-31.416 -13.585,-31.416 -0.707,-2.216 0.347,-5.007 2.342,-6.203 z" /></g><g
           transform="translate(180.6168,174.3891)"
           id="g172"><path
             id="path174"
             style="fill:none;stroke:#000000;stroke-width:1.98899996;stroke-linecap:butt;stroke-linejoin:miter;stroke-miterlimit:10;stroke-dasharray:none;stroke-opacity:1"
             d="m 0,0 c 1.995,-1.196 4.953,-0.809 6.574,0.86 0,0 13.685,14.091 21.298,26.795 15.451,25.784 20.615,51.098 11.534,56.54 -9.08,5.441 -28.968,-11.05 -44.419,-36.835 -7.612,-12.703 -13.585,-31.416 -13.585,-31.416 -0.707,-2.216 0.347,-5.007 2.342,-6.203 z" /></g><g
           id="g176"><g
             id="g178" /><g
             id="g190"><g
               style="opacity:0.21000701"
               id="g188"
               clip-path="url(#clipPath182)"><g
                 id="g186"
                 transform="translate(181.4682,178.52)"><path
                   id="path184"
                   style="fill:#002a86;fill-opacity:1;fill-rule:nonzero;stroke:none"
                   d="m 0,0 c 0,0 13.782,14.191 21.395,26.895 13.893,23.185 22.779,44.85 17.16,53.169 1.119,-0.116 -1.165,0.698 -0.25,0.15 C 47.386,74.772 42.221,49.458 26.77,23.674 19.158,10.97 5.375,-3.221 5.375,-3.221 3.808,-4.835 0.832,-5.14 -1.239,-3.899 l -5.375,3.221 C -4.543,-1.918 -1.567,-1.614 0,0" /></g></g></g></g><g
           transform="translate(147.2362,190.7339)"
           id="g192"><path
             id="path194"
             style="fill:#0070f2;fill-opacity:1;fill-rule:nonzero;stroke:none"
             d="m 0,0 c 3.641,18.277 16.229,26.647 24.323,30.217 2.405,1.06 4.778,-1.549 3.518,-3.855 C 22.896,17.305 19.127,8.509 16.701,0.707 16.321,-0.515 15.162,-1.309 13.885,-1.234 12.249,-1.138 9.802,-1.21 6.977,-1.995 5.748,-2.337 4.665,-2.714 3.727,-3.091 1.704,-3.904 -0.426,-2.138 0,0" /></g><g
           transform="translate(147.2362,190.7339)"
           id="g196"><path
             id="path198"
             style="fill:none;stroke:#000000;stroke-width:2.06500006;stroke-linecap:butt;stroke-linejoin:miter;stroke-miterlimit:10;stroke-dasharray:none;stroke-opacity:1"
             d="m 0,0 c 3.641,18.277 16.229,26.647 24.323,30.217 2.405,1.06 4.778,-1.549 3.518,-3.855 C 22.896,17.305 19.127,8.509 16.701,0.707 16.321,-0.515 15.162,-1.309 13.885,-1.234 12.249,-1.138 9.802,-1.21 6.977,-1.995 5.748,-2.337 4.665,-2.714 3.727,-3.091 1.704,-3.904 -0.426,-2.138 0,0 Z" /></g><g
           transform="translate(149.5138,189.9691)"
           id="g200"><path
             id="path202"
             style="fill:none;stroke:#ffffff;stroke-width:1.54799998;stroke-linecap:round;stroke-linejoin:miter;stroke-miterlimit:10;stroke-dasharray:none;stroke-opacity:1"
             d="M 0,0 C 3.914,17.589 15.205,25.225 23.111,29.022" /></g><g
           transform="translate(194.5155,162.4022)"
           id="g204"><path
             id="path206"
             style="fill:#0070f2;fill-opacity:1;fill-rule:nonzero;stroke:none"
             d="m 0,0 c 14.4,11.83 15.845,26.877 15.176,35.698 -0.199,2.62 -3.619,3.483 -5.059,1.285 C 4.463,28.351 -1.516,20.879 -7.252,15.06 -8.15,14.149 -8.304,12.753 -7.636,11.663 -6.78,10.265 -5.689,8.073 -5.05,5.212 -4.771,3.967 -4.593,2.834 -4.483,1.829 -4.246,-0.338 -1.685,-1.384 0,0" /></g><g
           transform="translate(194.5155,162.4022)"
           id="g208"><path
             id="path210"
             style="fill:none;stroke:#000000;stroke-width:2.06500006;stroke-linecap:butt;stroke-linejoin:miter;stroke-miterlimit:10;stroke-dasharray:none;stroke-opacity:1"
             d="m 0,0 c 14.4,11.83 15.845,26.877 15.176,35.698 -0.199,2.62 -3.619,3.483 -5.059,1.285 C 4.463,28.351 -1.516,20.879 -7.252,15.06 -8.15,14.149 -8.304,12.753 -7.636,11.663 -6.78,10.265 -5.689,8.073 -5.05,5.212 -4.771,3.967 -4.593,2.834 -4.483,1.829 -4.246,-0.338 -1.685,-1.384 0,0 Z" /></g><g
           transform="translate(215.7901,235.8824)"
           id="g212"><path
             id="path214"
             style="fill:#1b90ff;fill-opacity:1;fill-rule:nonzero;stroke:none"
             d="m 0,0 c -2.282,-3.808 -7.219,-5.045 -11.026,-2.763 -3.808,2.282 -5.045,7.218 -2.764,11.026 2.282,3.808 7.219,5.045 11.027,2.763 C 1.045,8.745 2.282,3.808 0,0" /></g><g
           transform="translate(215.7901,235.8824)"
           id="g216"><path
             id="path218"
             style="fill:none;stroke:#000000;stroke-width:2.06500006;stroke-linecap:butt;stroke-linejoin:miter;stroke-miterlimit:10;stroke-dasharray:none;stroke-opacity:1"
             d="m 0,0 c -2.282,-3.808 -7.219,-5.045 -11.026,-2.763 -3.808,2.282 -5.045,7.218 -2.764,11.026 2.282,3.808 7.219,5.045 11.027,2.763 C 1.045,8.745 2.282,3.808 0,0 Z" /></g><g
           transform="translate(183.3447,190.9693)"
           id="g220"><path
             id="path222"
             style="fill:#0070f2;fill-opacity:1;fill-rule:nonzero;stroke:none"
             d="m 0,0 c -5.849,-9.76 -11.858,-16.912 -13.423,-15.974 -1.565,0.938 1.907,9.61 7.756,19.37 C 0.182,13.156 6.191,20.308 7.756,19.37 9.321,18.432 5.849,9.76 0,0" /></g><g
           transform="translate(183.3447,190.9693)"
           id="g224"><path
             id="path226"
             style="fill:none;stroke:#000000;stroke-width:2.19000006;stroke-linecap:butt;stroke-linejoin:miter;stroke-miterlimit:10;stroke-dasharray:none;stroke-opacity:1"
             d="m 0,0 c -5.849,-9.76 -11.858,-16.912 -13.423,-15.974 -1.565,0.938 1.907,9.61 7.756,19.37 C 0.182,13.156 6.191,20.308 7.756,19.37 9.321,18.432 5.849,9.76 0,0 Z" /></g><g
           transform="translate(184.4293,235.4766)"
           id="g228"><path
             id="path230"
             style="fill:none;stroke:#000000;stroke-width:2.06500006;stroke-linecap:butt;stroke-linejoin:miter;stroke-miterlimit:10;stroke-dasharray:none;stroke-opacity:1"
             d="M 0,0 32.127,-19.252" /></g><g
           transform="translate(192.767,164.05)"
           id="g232"><path
             id="path234"
             style="fill:none;stroke:#002a86;stroke-width:1.54799998;stroke-linecap:round;stroke-linejoin:miter;stroke-miterlimit:10;stroke-dasharray:none;stroke-opacity:1"
             d="M 0,0 C 13.665,11.746 15.073,25.304 14.694,34.066" /></g></g></g></g></svg>
