<svg width="1893" height="2333" xmlns="http://www.w3.org/2000/svg" xmlns:xlink="http://www.w3.org/1999/xlink" xml:space="preserve" overflow="hidden"><defs><clipPath id="clip0"><rect x="1255" y="73" width="1893" height="2333"/></clipPath></defs><g clip-path="url(#clip0)" transform="translate(-1255 -73)"><rect x="2248.5" y="78.4999" width="562" height="275" stroke="#000000" stroke-width="9.16667" stroke-linecap="butt" stroke-linejoin="miter" stroke-miterlimit="8" stroke-opacity="1" fill="none"/><text fill="#000000" fill-opacity="1" font-family="Arial,Arial_MSFontService,sans-serif" font-style="normal" font-variant="normal" font-weight="400" font-stretch="normal" font-size="83" text-anchor="start" direction="ltr" writing-mode="lr-tb" unicode-bidi="normal" text-decoration="none" transform="matrix(1 0 0 1 2313.43 246)">connectivity</text><rect x="2248.5" y="577.5" width="562" height="275" stroke="#000000" stroke-width="9.16667" stroke-linecap="butt" stroke-linejoin="miter" stroke-miterlimit="8" stroke-opacity="1" fill="none"/><text fill="#000000" fill-opacity="1" font-family="Arial,Arial_MSFontService,sans-serif" font-style="normal" font-variant="normal" font-weight="400" font-stretch="normal" font-size="83" text-anchor="start" direction="ltr" writing-mode="lr-tb" unicode-bidi="normal" text-decoration="none" transform="matrix(1 0 0 1 2350.1 745)">http<tspan fill="#000000" fill-opacity="1" font-family="Arial,Arial_MSFontService,sans-serif" font-style="normal" font-variant="normal" font-weight="400" font-stretch="normal" font-size="83" text-anchor="start" direction="ltr" writing-mode="lr-tb" unicode-bidi="normal" text-decoration="none" x="137.5" y="0">-</tspan>client</text><rect x="1261.5" y="1137.5" width="562" height="275" stroke="#000000" stroke-width="9.16667" stroke-linecap="butt" stroke-linejoin="miter" stroke-miterlimit="8" stroke-opacity="1" fill="none"/><text fill="#000000" fill-opacity="1" font-family="Arial,Arial_MSFontService,sans-serif" font-style="normal" font-variant="normal" font-weight="400" font-stretch="normal" font-size="83" text-anchor="start" direction="ltr" writing-mode="lr-tb" unicode-bidi="normal" text-decoration="none" transform="matrix(1 0 0 1 1381.49 1305)">o<tspan fill="#000000" fill-opacity="1" font-family="Arial,Arial_MSFontService,sans-serif" font-style="normal" font-variant="normal" font-weight="400" font-stretch="normal" font-size="83" text-anchor="start" direction="ltr" writing-mode="lr-tb" unicode-bidi="normal" text-decoration="none" x="45.8334" y="0">data</tspan>-v2</text><rect x="1920.5" y="1135.5" width="561" height="275" stroke="#000000" stroke-width="9.16667" stroke-linecap="butt" stroke-linejoin="miter" stroke-miterlimit="8" stroke-opacity="1" fill="none"/><text fill="#000000" fill-opacity="1" font-family="Arial,Arial_MSFontService,sans-serif" font-style="normal" font-variant="normal" font-weight="400" font-stretch="normal" font-size="83" text-anchor="start" direction="ltr" writing-mode="lr-tb" unicode-bidi="normal" text-decoration="none" transform="matrix(1 0 0 1 2040.16 1303)">o<tspan fill="#000000" fill-opacity="1" font-family="Arial,Arial_MSFontService,sans-serif" font-style="normal" font-variant="normal" font-weight="400" font-stretch="normal" font-size="83" text-anchor="start" direction="ltr" writing-mode="lr-tb" unicode-bidi="normal" text-decoration="none" x="45.8333" y="0">data</tspan><tspan fill="#000000" fill-opacity="1" font-family="Arial,Arial_MSFontService,sans-serif" font-style="normal" font-variant="normal" font-weight="400" font-stretch="normal" font-size="83" text-anchor="start" direction="ltr" writing-mode="lr-tb" unicode-bidi="normal" text-decoration="none" x="206.25" y="0">-</tspan>v4</text><rect x="2578.5" y="1134.5" width="562" height="276" stroke="#000000" stroke-width="9.16667" stroke-linecap="butt" stroke-linejoin="miter" stroke-miterlimit="8" stroke-opacity="1" fill="none"/><text fill="#000000" fill-opacity="1" font-family="Arial,Arial_MSFontService,sans-serif" font-style="normal" font-variant="normal" font-weight="400" font-stretch="normal" font-size="83" text-anchor="start" direction="ltr" writing-mode="lr-tb" unicode-bidi="normal" text-decoration="none" transform="matrix(1 0 0 1 2712.58 1303)">openapi</text><rect x="1594.5" y="2115.5" width="562" height="276" stroke="#000000" stroke-width="9.16667" stroke-linecap="butt" stroke-linejoin="miter" stroke-miterlimit="8" stroke-opacity="1" fill="none"/><text fill="#000000" fill-opacity="1" font-family="Arial,Arial_MSFontService,sans-serif" font-style="normal" font-variant="normal" font-weight="400" font-stretch="normal" font-size="83" text-anchor="start" direction="ltr" writing-mode="lr-tb" unicode-bidi="normal" text-decoration="none" transform="matrix(1 0 0 1 1698.76 2284)">generator</text><rect x="2578.5" y="2117.5" width="562" height="275" stroke="#000000" stroke-width="9.16667" stroke-linecap="butt" stroke-linejoin="miter" stroke-miterlimit="8" stroke-opacity="1" fill="none"/><text fill="#000000" fill-opacity="1" font-family="Arial,Arial_MSFontService,sans-serif" font-style="normal" font-variant="normal" font-weight="400" font-stretch="normal" font-size="83" text-anchor="start" direction="ltr" writing-mode="lr-tb" unicode-bidi="normal" text-decoration="none" transform="matrix(1 0 0 1 2698.83 2236)">openapi<tspan fill="#000000" fill-opacity="1" font-family="Arial,Arial_MSFontService,sans-serif" font-style="normal" font-variant="normal" font-weight="400" font-stretch="normal" font-size="83" text-anchor="start" direction="ltr" writing-mode="lr-tb" unicode-bidi="normal" text-decoration="none" x="293.334" y="0">-</tspan><tspan fill="#000000" fill-opacity="1" font-family="Arial,Arial_MSFontService,sans-serif" font-style="normal" font-variant="normal" font-weight="400" font-stretch="normal" font-size="83" text-anchor="start" direction="ltr" writing-mode="lr-tb" unicode-bidi="normal" text-decoration="none" x="-16.0415" y="99">generator</tspan></text><path d="M0 0 0.136417 59.3968" stroke="#000000" stroke-width="9.16667" stroke-linecap="butt" stroke-linejoin="round" stroke-miterlimit="10" stroke-opacity="1" fill="none" fill-rule="evenodd" transform="matrix(-1 0 0 1 2529.64 353.5)"/><path d="M2529.5 509.5 2529.64 577.432" stroke="#000000" stroke-width="9.16667" stroke-linecap="butt" stroke-linejoin="round" stroke-miterlimit="10" stroke-opacity="1" fill="none" fill-rule="evenodd"/><path d="M2529.64 1008.5 2529.64 1071.76 2201.5 1071.76 2201.5 1135.02" stroke="#000000" stroke-width="9.16667" stroke-linecap="butt" stroke-linejoin="round" stroke-miterlimit="10" stroke-opacity="1" fill="none" fill-rule="evenodd"/><path d="M1542.5 1137.08 1542.5 1071.64 2529.31 1071.64 2529.31 1008.5" stroke="#000000" stroke-width="9.16667" stroke-linecap="butt" stroke-linejoin="round" stroke-miterlimit="10" stroke-opacity="1" fill="none" fill-rule="evenodd"/><rect x="1261.5" y="1636.5" width="562" height="276" stroke="#999999" stroke-width="9.16667" stroke-linecap="butt" stroke-linejoin="miter" stroke-miterlimit="8" stroke-dasharray="36.6667 27.5" stroke-opacity="1" fill="none"/><text fill="#999999" fill-opacity="1" font-family="Arial,Arial_MSFontService,sans-serif" font-style="normal" font-variant="normal" font-weight="400" font-stretch="normal" font-size="83" text-anchor="start" direction="ltr" writing-mode="lr-tb" unicode-bidi="normal" text-decoration="none" transform="matrix(1 0 0 1 1367.74 1755)">OData v2 <tspan fill="#999999" fill-opacity="1" font-family="Arial,Arial_MSFontService,sans-serif" font-style="normal" font-variant="normal" font-weight="400" font-stretch="normal" font-size="83" text-anchor="start" direction="ltr" writing-mode="lr-tb" unicode-bidi="normal" text-decoration="none" x="77.9168" y="99">client</tspan></text><rect x="2578.5" y="1636.5" width="562" height="276" stroke="#999999" stroke-width="9.16667" stroke-linecap="butt" stroke-linejoin="miter" stroke-miterlimit="8" stroke-dasharray="36.6667 27.5" stroke-opacity="1" fill="none"/><text fill="#999999" fill-opacity="1" font-family="Arial,Arial_MSFontService,sans-serif" font-style="normal" font-variant="normal" font-weight="400" font-stretch="normal" font-size="83" text-anchor="start" direction="ltr" writing-mode="lr-tb" unicode-bidi="normal" text-decoration="none" transform="matrix(1 0 0 1 2691.95 1755)">OpenAPI<tspan fill="#999999" fill-opacity="1" font-family="Arial,Arial_MSFontService,sans-serif" font-style="normal" font-variant="normal" font-weight="400" font-stretch="normal" font-size="83" text-anchor="start" direction="ltr" writing-mode="lr-tb" unicode-bidi="normal" text-decoration="none" x="71.0418" y="99">client</tspan></text><rect x="1920.5" y="1636.5" width="561" height="276" stroke="#999999" stroke-width="9.16667" stroke-linecap="butt" stroke-linejoin="miter" stroke-miterlimit="8" stroke-dasharray="36.6667 27.5" stroke-opacity="1" fill="none"/><text fill="#999999" fill-opacity="1" font-family="Arial,Arial_MSFontService,sans-serif" font-style="normal" font-variant="normal" font-weight="400" font-stretch="normal" font-size="83" text-anchor="start" direction="ltr" writing-mode="lr-tb" unicode-bidi="normal" text-decoration="none" transform="matrix(1 0 0 1 2026.41 1755)">OData v4 <tspan fill="#999999" fill-opacity="1" font-family="Arial,Arial_MSFontService,sans-serif" font-style="normal" font-variant="normal" font-weight="400" font-stretch="normal" font-size="83" text-anchor="start" direction="ltr" writing-mode="lr-tb" unicode-bidi="normal" text-decoration="none" x="77.9165" y="99">client</tspan></text><path d="M0 0 101.636 0 101.636 333.319 203.271 333.319" stroke="#999999" stroke-width="9.16667" stroke-linecap="butt" stroke-linejoin="round" stroke-miterlimit="10" stroke-dasharray="36.6667 27.5" stroke-opacity="1" fill="none" fill-rule="evenodd" transform="matrix(1.83697e-16 1 1 -1.83697e-16 1542.5 1912.5)"/><path d="M1875.5 2115.77 1875.5 2014.14 2200.85 2014.14 2200.85 1912.5" stroke="#999999" stroke-width="9.16667" stroke-linecap="butt" stroke-linejoin="round" stroke-miterlimit="10" stroke-dasharray="36.6667 27.5" stroke-opacity="1" fill="none" fill-rule="evenodd"/><path d="M0 0 0.000360892 204.724" stroke="#999999" stroke-width="9.16667" stroke-linecap="butt" stroke-linejoin="round" stroke-miterlimit="10" stroke-dasharray="36.6667 27.5" stroke-opacity="1" fill="none" fill-rule="evenodd" transform="matrix(1 0 0 -1 2859.5 2117.22)"/><path d="M1542.5 1412.5 1542.5 1484.21" stroke="#999999" stroke-width="9.16667" stroke-linecap="butt" stroke-linejoin="round" stroke-miterlimit="10" stroke-opacity="1" fill="none" fill-rule="evenodd"/><path d="M0 0 0.125951 62.2731" stroke="#999999" stroke-width="9.16667" stroke-linecap="butt" stroke-linejoin="round" stroke-miterlimit="10" stroke-opacity="1" fill="none" fill-rule="evenodd" transform="matrix(-1 0 0 1 2200.63 1410.5)"/><path d="M0 0 0.000360892 61.5022" stroke="#999999" stroke-width="9.16667" stroke-linecap="butt" stroke-linejoin="round" stroke-miterlimit="10" stroke-opacity="1" fill="none" fill-rule="evenodd" transform="matrix(-1 0 0 1 2859.5 1410.5)"/><path d="M2200.5 1569.5 2200.63 1636.94" stroke="#999999" stroke-width="9.16667" stroke-linecap="butt" stroke-linejoin="round" stroke-miterlimit="10" stroke-opacity="1" fill="none" fill-rule="evenodd"/><path d="M2859.5 1637.16 2859.5 1568.5" stroke="#999999" stroke-width="9.16667" stroke-linecap="butt" stroke-linejoin="round" stroke-miterlimit="10" stroke-opacity="1" fill="none" fill-rule="evenodd"/><path d="M1542.5 1571.5 1542.5 1636.49" stroke="#999999" stroke-width="9.16667" stroke-linecap="butt" stroke-linejoin="round" stroke-miterlimit="10" stroke-opacity="1" fill="none" fill-rule="evenodd"/><text fill="#999999" fill-opacity="1" font-family="Arial,Arial_MSFontService,sans-serif" font-style="italic" font-variant="normal" font-weight="400" font-stretch="normal" font-size="83" text-anchor="start" direction="ltr" writing-mode="lr-tb" unicode-bidi="normal" text-decoration="none" transform="matrix(1 0 0 1 2290.97 2044)">generates</text><path d="M0 0 63.0302 0 63.0302 330.527 126.063 330.527" stroke="#000000" stroke-width="9.16667" stroke-linecap="butt" stroke-linejoin="round" stroke-miterlimit="10" stroke-opacity="1" fill="none" fill-rule="evenodd" transform="matrix(-1.83697e-16 -1 -1 1.83697e-16 2860.03 1134.56)"/><path d="M2472 950.919 2481.07 950.919C2481.07 977.428 2502.53 998.919 2529 998.919 2555.47 998.919 2576.93 977.428 2576.93 950.919L2586 950.919C2586 982.444 2560.48 1008 2529 1008 2497.52 1008 2472 982.444 2472 950.919ZM2529 921.035C2512.51 921.035 2499.13 934.414 2499.13 950.918 2499.13 967.423 2512.51 980.802 2529 980.802 2545.49 980.802 2558.87 967.423 2558.87 950.919 2558.87 934.415 2545.49 921.036 2529 921.035ZM2529 912C2550.52 912 2567.96 929.424 2567.96 950.919 2567.96 972.413 2550.52 989.838 2529 989.838 2507.48 989.838 2490.04 972.413 2490.04 950.919 2490.04 929.424 2507.48 912 2529 912Z" fill="#000000" fill-rule="evenodd" fill-opacity="1"/><path d="M0 0 0.136417 59.6472" stroke="#000000" stroke-width="9.16667" stroke-linecap="butt" stroke-linejoin="round" stroke-miterlimit="10" stroke-opacity="1" fill="none" fill-rule="evenodd" transform="matrix(-1 0 0 1 2529.64 852.5)"/><path d="M2472 451.919 2481.07 451.919C2481.07 478.428 2502.53 499.919 2529 499.919 2555.47 499.919 2576.93 478.428 2576.93 451.919L2586 451.919C2586 483.444 2560.48 509 2529 509 2497.52 509 2472 483.444 2472 451.919ZM2529 422.035C2512.51 422.035 2499.13 435.414 2499.13 451.919 2499.13 468.423 2512.51 481.802 2529 481.802 2545.49 481.802 2558.87 468.423 2558.87 451.919 2558.87 435.415 2545.49 422.036 2529 422.035ZM2529 413C2550.52 413 2567.96 430.424 2567.96 451.919 2567.96 473.413 2550.52 490.838 2529 490.838 2507.48 490.838 2490.04 473.413 2490.04 451.919 2490.04 430.424 2507.48 413 2529 413Z" fill="#000000" fill-rule="evenodd" fill-opacity="1"/><path d="M1485 1513.92 1494.07 1513.92C1494.07 1540.43 1515.53 1561.92 1542 1561.92 1568.47 1561.92 1589.93 1540.43 1589.93 1513.92L1599 1513.92C1599 1545.44 1573.48 1571 1542 1571 1510.52 1571 1485 1545.44 1485 1513.92ZM1542 1484.04C1525.51 1484.04 1512.13 1497.41 1512.13 1513.92 1512.13 1530.42 1525.51 1543.8 1542 1543.8 1558.49 1543.8 1571.87 1530.42 1571.87 1513.92 1571.87 1497.41 1558.49 1484.04 1542 1484.04ZM1542 1475C1563.52 1475 1580.96 1492.42 1580.96 1513.92 1580.96 1535.41 1563.52 1552.84 1542 1552.84 1520.48 1552.84 1503.04 1535.41 1503.04 1513.92 1503.04 1492.42 1520.48 1475 1542 1475Z" fill="#999999" fill-rule="evenodd" fill-opacity="1"/><path d="M2143 1511.92 2152.07 1511.92C2152.07 1538.43 2173.53 1559.92 2200 1559.92 2226.47 1559.92 2247.93 1538.43 2247.93 1511.92L2257 1511.92C2257 1543.44 2231.48 1569 2200 1569 2168.52 1569 2143 1543.44 2143 1511.92ZM2200 1482.04C2183.51 1482.04 2170.13 1495.41 2170.13 1511.92 2170.13 1528.42 2183.51 1541.8 2200 1541.8 2216.49 1541.8 2229.87 1528.42 2229.87 1511.92 2229.87 1495.41 2216.49 1482.04 2200 1482.04ZM2200 1473C2221.52 1473 2238.96 1490.42 2238.96 1511.92 2238.96 1533.41 2221.52 1550.84 2200 1550.84 2178.48 1550.84 2161.04 1533.41 2161.04 1511.92 2161.04 1490.42 2178.48 1473 2200 1473Z" fill="#999999" fill-rule="evenodd" fill-opacity="1"/><path d="M2802 1510.32 2811.07 1510.32C2811.07 1537.11 2832.53 1558.82 2859 1558.82 2885.47 1558.82 2906.93 1537.11 2906.93 1510.32L2916 1510.32C2916 1542.18 2890.48 1568 2859 1568 2827.52 1568 2802 1542.18 2802 1510.32ZM2859 1480.13C2842.51 1480.13 2829.13 1493.65 2829.13 1510.32 2829.13 1527 2842.51 1540.52 2859 1540.52 2875.49 1540.52 2888.87 1527 2888.87 1510.32 2888.87 1493.65 2875.49 1480.13 2859 1480.13ZM2859 1471C2880.52 1471 2897.96 1488.61 2897.96 1510.32 2897.96 1532.04 2880.52 1549.65 2859 1549.65 2837.48 1549.65 2820.04 1532.04 2820.04 1510.32 2820.04 1488.61 2837.48 1471 2859 1471Z" fill="#999999" fill-rule="evenodd" fill-opacity="1"/></g></svg>