<svg width="3548" height="2040" xmlns="http://www.w3.org/2000/svg" xmlns:xlink="http://www.w3.org/1999/xlink" xml:space="preserve" overflow="hidden"><defs><clipPath id="clip0"><rect x="719" y="412" width="3548" height="2040"/></clipPath></defs><g clip-path="url(#clip0)" transform="translate(-719 -412)"><rect x="1367.5" y="417.5" width="772" height="488" stroke="#000000" stroke-width="9.16667" stroke-linecap="butt" stroke-linejoin="miter" stroke-miterlimit="8" stroke-dasharray="36.6667 27.5" stroke-opacity="1" fill="#F2F2F2" fill-opacity="1"/><rect x="2214.5" y="417.5" width="1482" height="488" stroke="#000000" stroke-width="9.16667" stroke-linecap="butt" stroke-linejoin="miter" stroke-miterlimit="8" stroke-dasharray="36.6667 27.5" stroke-opacity="1" fill="#F2F2F2" fill-opacity="1"/><rect x="1816.5" y="2168.5" width="562" height="276" stroke="#000000" stroke-width="9.16667" stroke-linecap="butt" stroke-linejoin="miter" stroke-miterlimit="8" stroke-opacity="1" fill="none"/><text fill="#000000" fill-opacity="1" font-family="Arial,Arial_MSFontService,sans-serif" font-style="normal" font-variant="normal" font-weight="400" font-stretch="normal" font-size="83" text-anchor="start" direction="ltr" writing-mode="lr-tb" unicode-bidi="normal" text-decoration="none" transform="matrix(1 0 0 1 1881.31 2337)">connectivity</text><rect x="1816.5" y="1671.5" width="562" height="276" stroke="#000000" stroke-width="9.16667" stroke-linecap="butt" stroke-linejoin="miter" stroke-miterlimit="8" stroke-opacity="1" fill="none"/><text fill="#000000" fill-opacity="1" font-family="Arial,Arial_MSFontService,sans-serif" font-style="normal" font-variant="normal" font-weight="400" font-stretch="normal" font-size="83" text-anchor="start" direction="ltr" writing-mode="lr-tb" unicode-bidi="normal" text-decoration="none" transform="matrix(1 0 0 1 1917.97 1840)">http<tspan fill="#000000" fill-opacity="1" font-family="Arial,Arial_MSFontService,sans-serif" font-style="normal" font-variant="normal" font-weight="400" font-stretch="normal" font-size="83" text-anchor="start" direction="ltr" writing-mode="lr-tb" unicode-bidi="normal" text-decoration="none" x="137.5" y="0">-</tspan>client</text><rect x="2988.5" y="1111.5" width="562" height="276" stroke="#000000" stroke-width="9.16667" stroke-linecap="butt" stroke-linejoin="miter" stroke-miterlimit="8" stroke-opacity="1" fill="none"/><text fill="#000000" fill-opacity="1" font-family="Arial,Arial_MSFontService,sans-serif" font-style="normal" font-variant="normal" font-weight="400" font-stretch="normal" font-size="83" text-anchor="start" direction="ltr" writing-mode="lr-tb" unicode-bidi="normal" text-decoration="none" transform="matrix(1 0 0 1 3108.38 1280)">o<tspan fill="#000000" fill-opacity="1" font-family="Arial,Arial_MSFontService,sans-serif" font-style="normal" font-variant="normal" font-weight="400" font-stretch="normal" font-size="83" text-anchor="start" direction="ltr" writing-mode="lr-tb" unicode-bidi="normal" text-decoration="none" x="45.8335" y="0">data</tspan><tspan fill="#000000" fill-opacity="1" font-family="Arial,Arial_MSFontService,sans-serif" font-style="normal" font-variant="normal" font-weight="400" font-stretch="normal" font-size="83" text-anchor="start" direction="ltr" writing-mode="lr-tb" unicode-bidi="normal" text-decoration="none" x="206.25" y="0">-</tspan>v2</text><rect x="2280.5" y="1113.5" width="561" height="276" stroke="#000000" stroke-width="9.16667" stroke-linecap="butt" stroke-linejoin="miter" stroke-miterlimit="8" stroke-opacity="1" fill="none"/><text fill="#000000" fill-opacity="1" font-family="Arial,Arial_MSFontService,sans-serif" font-style="normal" font-variant="normal" font-weight="400" font-stretch="normal" font-size="83" text-anchor="start" direction="ltr" writing-mode="lr-tb" unicode-bidi="normal" text-decoration="none" transform="matrix(1 0 0 1 2400.09 1282)">o<tspan fill="#000000" fill-opacity="1" font-family="Arial,Arial_MSFontService,sans-serif" font-style="normal" font-variant="normal" font-weight="400" font-stretch="normal" font-size="83" text-anchor="start" direction="ltr" writing-mode="lr-tb" unicode-bidi="normal" text-decoration="none" x="45.8335" y="0">data</tspan><tspan fill="#000000" fill-opacity="1" font-family="Arial,Arial_MSFontService,sans-serif" font-style="normal" font-variant="normal" font-weight="400" font-stretch="normal" font-size="83" text-anchor="start" direction="ltr" writing-mode="lr-tb" unicode-bidi="normal" text-decoration="none" x="206.25" y="0">-</tspan>v4</text><rect x="1433.5" y="1114.5" width="562" height="276" stroke="#000000" stroke-width="9.16667" stroke-linecap="butt" stroke-linejoin="miter" stroke-miterlimit="8" stroke-opacity="1" fill="none"/><text fill="#000000" fill-opacity="1" font-family="Arial,Arial_MSFontService,sans-serif" font-style="normal" font-variant="normal" font-weight="400" font-stretch="normal" font-size="83" text-anchor="start" direction="ltr" writing-mode="lr-tb" unicode-bidi="normal" text-decoration="none" transform="matrix(1 0 0 1 1567.52 1282)">openapi</text><rect x="3696.5" y="1114.5" width="562" height="276" stroke="#000000" stroke-width="9.16667" stroke-linecap="butt" stroke-linejoin="miter" stroke-miterlimit="8" stroke-opacity="1" fill="none"/><text fill="#000000" fill-opacity="1" font-family="Arial,Arial_MSFontService,sans-serif" font-style="normal" font-variant="normal" font-weight="400" font-stretch="normal" font-size="83" text-anchor="start" direction="ltr" writing-mode="lr-tb" unicode-bidi="normal" text-decoration="none" transform="matrix(1 0 0 1 3800.51 1282)">generator</text><rect x="725.5" y="1114.5" width="562" height="276" stroke="#000000" stroke-width="9.16667" stroke-linecap="butt" stroke-linejoin="miter" stroke-miterlimit="8" stroke-opacity="1" fill="none"/><text fill="#000000" fill-opacity="1" font-family="Arial,Arial_MSFontService,sans-serif" font-style="normal" font-variant="normal" font-weight="400" font-stretch="normal" font-size="83" text-anchor="start" direction="ltr" writing-mode="lr-tb" unicode-bidi="normal" text-decoration="none" transform="matrix(1 0 0 1 845.477 1233)">openapi-<tspan fill="#000000" fill-opacity="1" font-family="Arial,Arial_MSFontService,sans-serif" font-style="normal" font-variant="normal" font-weight="400" font-stretch="normal" font-size="83" text-anchor="start" direction="ltr" writing-mode="lr-tb" unicode-bidi="normal" text-decoration="none" x="-16.0417" y="99">generator</tspan></text><path d="M0 0 0.136056 59.3968" stroke="#000000" stroke-width="9.16667" stroke-linecap="butt" stroke-linejoin="round" stroke-miterlimit="10" stroke-opacity="1" fill="none" fill-rule="evenodd" transform="matrix(1 0 0 -1 2097.5 2168.9)"/><path d="M2097.64 2013.3 2097.5 1947.5" stroke="#000000" stroke-width="9.16667" stroke-linecap="butt" stroke-linejoin="round" stroke-miterlimit="10" stroke-opacity="1" fill="none" fill-rule="evenodd"/><path d="M2097.5 1516.02 2097.5 1452.76 2561.15 1452.76 2561.15 1389.5" stroke="#000000" stroke-width="9.16667" stroke-linecap="butt" stroke-linejoin="round" stroke-miterlimit="10" stroke-opacity="1" fill="none" fill-rule="evenodd"/><path d="M3269.44 1387.5 3269.44 1453.66 2097.5 1453.66 2097.5 1516.08" stroke="#000000" stroke-width="9.16667" stroke-linecap="butt" stroke-linejoin="round" stroke-miterlimit="10" stroke-opacity="1" fill="none" fill-rule="evenodd"/><path d="M0-4.58333 36.6667-4.58333 36.6667 4.58333 0 4.58333ZM64.1667-4.58333 100.833-4.58333 100.833 4.58333 64.1667 4.58333ZM128.333-4.58333 165-4.58333 165 4.58333 128.333 4.58333ZM192.5-4.58333 229.167-4.58333 229.167 4.58333 192.5 4.58333ZM256.667-4.58333 293.333-4.58333 293.333 4.58333 256.667 4.58333ZM320.833-4.58333 357.5-4.58333 357.5 4.58333 320.833 4.58333ZM385-4.58333 421.667-4.58333 421.667 4.58333 385 4.58333ZM449.167-4.58333 452.64-4.58333C455.172-4.58333 457.224-2.53131 457.224 0L457.224 33.1931 448.057 33.1931 448.057 0 452.64 4.58333 449.167 4.58333ZM457.224 60.6931 457.224 97.3597 448.057 97.3597 448.057 60.6931ZM457.224 124.86 457.224 161.526 448.057 161.526 448.057 124.86ZM457.224 189.026 457.224 225.693 448.057 225.693 448.057 189.026ZM457.224 253.193 457.224 272.008 448.057 272.008 448.057 253.193ZM472.641 246.817 452.64 281.104 432.64 246.817C431.364 244.631 432.103 241.824 434.289 240.549 436.476 239.273 439.282 240.012 440.558 242.198L456.599 269.698 448.681 269.698 464.723 242.198C465.998 240.012 468.805 239.273 470.991 240.549 473.178 241.824 473.916 244.631 472.641 246.817Z" fill="#000000" fill-rule="nonzero" fill-opacity="1" transform="matrix(-1.83697e-16 -1 -1 1.83697e-16 3977.58 1114.14)"/><path d="M1001.92 1114.27 1001.92 1077.61 1011.08 1077.61 1011.08 1114.27ZM1001.92 1050.11 1001.92 1013.44 1011.08 1013.44 1011.08 1050.11ZM1001.92 985.939 1001.92 949.272 1011.08 949.272 1011.08 985.939ZM1001.92 921.772 1001.92 885.105 1011.08 885.105 1011.08 921.772ZM1001.92 857.605 1001.92 820.939 1011.08 820.939 1011.08 857.605ZM1001.92 793.439 1001.92 756.772 1011.08 756.772 1011.08 793.439ZM1001.92 729.272 1001.92 692.605 1011.08 692.605 1011.08 729.272ZM1001.92 665.105 1001.92 661.5C1001.92 658.969 1003.97 656.917 1006.5 656.917L1039.56 656.917 1039.56 666.083 1006.5 666.083 1011.08 661.5 1011.08 665.105ZM1067.06 656.917 1103.73 656.917 1103.73 666.083 1067.06 666.083ZM1131.23 656.917 1167.89 656.917 1167.89 666.083 1131.23 666.083ZM1195.39 656.917 1232.06 656.917 1232.06 666.083 1195.39 666.083ZM1259.56 656.917 1296.23 656.917 1296.23 666.083 1259.56 666.083ZM1323.73 656.917 1358.26 656.917 1358.26 666.083 1323.73 666.083ZM1333.07 641.499 1367.36 661.5 1333.07 681.501C1330.88 682.776 1328.08 682.037 1326.8 679.851 1325.52 677.664 1326.26 674.858 1328.45 673.583L1355.95 657.541 1355.95 665.459 1328.45 649.417C1326.26 648.142 1325.52 645.335 1326.8 643.149 1328.08 640.962 1330.88 640.224 1333.07 641.499Z" fill="#000000" fill-rule="nonzero" fill-opacity="1"/><path d="M3269.5 1112.21 3269.5 1040.5" stroke="#000000" stroke-width="9.16667" stroke-linecap="butt" stroke-linejoin="round" stroke-miterlimit="10" stroke-opacity="1" fill="none" fill-rule="evenodd"/><path d="M0 0 0.125591 62.2731" stroke="#000000" stroke-width="9.16667" stroke-linecap="butt" stroke-linejoin="round" stroke-miterlimit="10" stroke-opacity="1" fill="none" fill-rule="evenodd" transform="matrix(1 0 0 -1 2561.5 1113.77)"/><path d="M0 0 0.000360892 61.5022" stroke="#000000" stroke-width="9.16667" stroke-linecap="butt" stroke-linejoin="round" stroke-miterlimit="10" stroke-opacity="1" fill="none" fill-rule="evenodd" transform="matrix(1 0 0 -1 1714.5 1114)"/><path d="M0 0 0.713123 236.162" stroke="#000000" stroke-width="9.16667" stroke-linecap="butt" stroke-linejoin="round" stroke-miterlimit="10" stroke-opacity="1" fill="none" fill-rule="evenodd" transform="matrix(1 0 0 -1 2561.5 955.662)"/><path d="M1713.5 838.5 1714.41 956.432" stroke="#000000" stroke-width="9.16667" stroke-linecap="butt" stroke-linejoin="round" stroke-miterlimit="10" stroke-opacity="1" fill="none" fill-rule="evenodd"/><path d="M3269.4 953.016 3268.5 839.5" stroke="#000000" stroke-width="9.16667" stroke-linecap="butt" stroke-linejoin="round" stroke-miterlimit="10" stroke-opacity="1" fill="none" fill-rule="evenodd"/><text fill="#000000" fill-opacity="1" font-family="Arial,Arial_MSFontService,sans-serif" font-style="italic" font-variant="normal" font-weight="400" font-stretch="normal" font-size="83" text-anchor="start" direction="ltr" writing-mode="lr-tb" unicode-bidi="normal" text-decoration="none" transform="matrix(1 0 0 1 1048.14 988)">generates</text><path d="M0 0 63.0315 0 63.0315 382.672 126.063 382.672" stroke="#000000" stroke-width="9.16667" stroke-linecap="butt" stroke-linejoin="round" stroke-miterlimit="10" stroke-opacity="1" fill="none" fill-rule="evenodd" transform="matrix(1.83697e-16 1 1 -1.83697e-16 1714.5 1390.5)"/><path d="M2154 1573.08 2144.93 1573.08C2144.93 1546.57 2123.47 1525.08 2097 1525.08 2070.53 1525.08 2049.07 1546.57 2049.07 1573.08L2040 1573.08C2040 1541.56 2065.52 1516 2097 1516 2128.48 1516 2154 1541.56 2154 1573.08ZM2097 1602.96C2113.49 1602.96 2126.87 1589.59 2126.87 1573.08 2126.87 1556.58 2113.49 1543.2 2097 1543.2 2080.51 1543.2 2067.13 1556.58 2067.13 1573.08 2067.13 1589.59 2080.51 1602.96 2097 1602.96ZM2097 1612C2075.49 1612 2058.04 1594.58 2058.04 1573.08 2058.04 1551.59 2075.49 1534.16 2097 1534.16 2118.52 1534.16 2135.96 1551.59 2135.96 1573.08 2135.96 1594.58 2118.52 1612 2097 1612Z" fill="#000000" fill-rule="evenodd" fill-opacity="1"/><path d="M0 0 0.136056 59.6472" stroke="#000000" stroke-width="9.16667" stroke-linecap="butt" stroke-linejoin="round" stroke-miterlimit="10" stroke-opacity="1" fill="none" fill-rule="evenodd" transform="matrix(1 0 0 -1 2097.5 1672.15)"/><path d="M2154 2070.08 2144.93 2070.08C2144.93 2043.57 2123.47 2022.08 2097 2022.08 2070.53 2022.08 2049.07 2043.57 2049.07 2070.08L2040 2070.08C2040 2038.56 2065.52 2013 2097 2013 2128.48 2013 2154 2038.56 2154 2070.08ZM2097 2099.96C2113.49 2099.96 2126.87 2086.59 2126.87 2070.08 2126.87 2053.58 2113.49 2040.2 2097 2040.2 2080.51 2040.2 2067.13 2053.58 2067.13 2070.08 2067.13 2086.59 2080.51 2099.96 2097 2099.96ZM2097 2109C2075.49 2109 2058.04 2091.58 2058.04 2070.08 2058.04 2048.59 2075.49 2031.16 2097 2031.16 2118.52 2031.16 2135.96 2048.59 2135.96 2070.08 2135.96 2091.58 2118.52 2109 2097 2109Z" fill="#000000" fill-rule="evenodd" fill-opacity="1"/><path d="M3326 1010.08 3316.93 1010.08C3316.93 983.571 3295.47 962.081 3269 962.081 3242.53 962.081 3221.07 983.571 3221.07 1010.08L3212 1010.08C3212 978.556 3237.52 953 3269 953 3300.48 953 3326 978.556 3326 1010.08ZM3269 1039.96C3285.49 1039.96 3298.87 1026.59 3298.87 1010.08 3298.87 993.577 3285.49 980.198 3269 980.198 3252.51 980.198 3239.13 993.577 3239.13 1010.08 3239.13 1026.59 3252.51 1039.96 3269 1039.96ZM3269 1049C3247.49 1049 3230.04 1031.58 3230.04 1010.08 3230.04 988.587 3247.49 971.162 3269 971.162 3290.52 971.162 3307.96 988.587 3307.96 1010.08 3307.96 1031.58 3290.52 1049 3269 1049Z" fill="#000000" fill-rule="evenodd" fill-opacity="1"/><path d="M2618 1012.08 2608.93 1012.08C2608.93 985.571 2587.47 964.081 2561 964.081 2534.53 964.081 2513.07 985.571 2513.07 1012.08L2504 1012.08C2504 980.556 2529.52 955 2561 955 2592.48 955 2618 980.556 2618 1012.08ZM2561 1041.96C2577.49 1041.96 2590.87 1028.59 2590.87 1012.08 2590.87 995.577 2577.49 982.198 2561 982.198 2544.51 982.198 2531.13 995.577 2531.13 1012.08 2531.13 1028.59 2544.51 1041.96 2561 1041.96ZM2561 1051C2539.48 1051 2522.04 1033.58 2522.04 1012.08 2522.04 990.587 2539.48 973.162 2561 973.162 2582.52 973.162 2599.96 990.587 2599.96 1012.08 2599.96 1033.58 2582.52 1051 2561 1051Z" fill="#000000" fill-rule="evenodd" fill-opacity="1"/><path d="M1771 1013.08 1761.93 1013.08C1761.93 986.571 1740.47 965.081 1714 965.081 1687.53 965.081 1666.07 986.571 1666.07 1013.08L1657 1013.08C1657 981.556 1682.52 956 1714 956 1745.48 956 1771 981.556 1771 1013.08ZM1714 1042.96C1730.49 1042.96 1743.87 1029.59 1743.87 1013.08 1743.87 996.577 1730.49 983.198 1714 983.198 1697.51 983.198 1684.13 996.577 1684.13 1013.08 1684.13 1029.59 1697.51 1042.96 1714 1042.96ZM1714 1052C1692.48 1052 1675.04 1034.58 1675.04 1013.08 1675.04 991.587 1692.48 974.162 1714 974.162 1735.52 974.162 1752.96 991.587 1752.96 1013.08 1752.96 1034.58 1735.52 1052 1714 1052Z" fill="#000000" fill-rule="evenodd" fill-opacity="1"/><text fill="#000000" fill-opacity="1" font-family="Arial,Arial_MSFontService,sans-serif" font-style="italic" font-variant="normal" font-weight="400" font-stretch="normal" font-size="83" text-anchor="start" direction="ltr" writing-mode="lr-tb" unicode-bidi="normal" text-decoration="none" transform="matrix(1 0 0 1 3573.86 988)">generates</text><rect x="1512.5" y="479.5" width="562" height="276" stroke="#000000" stroke-width="9.16667" stroke-linecap="butt" stroke-linejoin="miter" stroke-miterlimit="8" stroke-opacity="1" fill="#FFFFFF" fill-opacity="1"/><text fill="#000000" fill-opacity="1" font-family="Arial,Arial_MSFontService,sans-serif" font-style="normal" font-variant="normal" font-weight="400" font-stretch="normal" font-size="83" text-anchor="start" direction="ltr" writing-mode="lr-tb" unicode-bidi="normal" text-decoration="none" transform="matrix(1 0 0 1 1625.49 598)">OpenAPI<tspan fill="#000000" fill-opacity="1" font-family="Arial,Arial_MSFontService,sans-serif" font-style="normal" font-variant="normal" font-weight="400" font-stretch="normal" font-size="83" text-anchor="start" direction="ltr" writing-mode="lr-tb" unicode-bidi="normal" text-decoration="none" x="71.0416" y="99">client</tspan></text><rect x="1473.5" y="518.5" width="562" height="276" stroke="#000000" stroke-width="9.16667" stroke-linecap="butt" stroke-linejoin="miter" stroke-miterlimit="8" stroke-opacity="1" fill="#FFFFFF" fill-opacity="1"/><text fill="#000000" fill-opacity="1" font-family="Arial,Arial_MSFontService,sans-serif" font-style="normal" font-variant="normal" font-weight="400" font-stretch="normal" font-size="83" text-anchor="start" direction="ltr" writing-mode="lr-tb" unicode-bidi="normal" text-decoration="none" transform="matrix(1 0 0 1 1586.86 637)">OpenAPI<tspan fill="#000000" fill-opacity="1" font-family="Arial,Arial_MSFontService,sans-serif" font-style="normal" font-variant="normal" font-weight="400" font-stretch="normal" font-size="83" text-anchor="start" direction="ltr" writing-mode="lr-tb" unicode-bidi="normal" text-decoration="none" x="71.0416" y="99">client</tspan></text><rect x="1432.5" y="563.5" width="562" height="275" stroke="#000000" stroke-width="9.16667" stroke-linecap="butt" stroke-linejoin="miter" stroke-miterlimit="8" stroke-opacity="1" fill="#FFFFFF" fill-opacity="1"/><text fill="#000000" fill-opacity="1" font-family="Arial,Arial_MSFontService,sans-serif" font-style="normal" font-variant="normal" font-weight="400" font-stretch="normal" font-size="83" text-anchor="start" direction="ltr" writing-mode="lr-tb" unicode-bidi="normal" text-decoration="none" transform="matrix(1 0 0 1 1545.98 681)">OpenAPI<tspan fill="#000000" fill-opacity="1" font-family="Arial,Arial_MSFontService,sans-serif" font-style="normal" font-variant="normal" font-weight="400" font-stretch="normal" font-size="83" text-anchor="start" direction="ltr" writing-mode="lr-tb" unicode-bidi="normal" text-decoration="none" x="50.4168" y="99">clients</tspan></text><rect x="3067.5" y="480.5" width="561" height="275" stroke="#000000" stroke-width="9.16667" stroke-linecap="butt" stroke-linejoin="miter" stroke-miterlimit="8" stroke-opacity="1" fill="#FFFFFF" fill-opacity="1"/><text fill="#000000" fill-opacity="1" font-family="Arial,Arial_MSFontService,sans-serif" font-style="normal" font-variant="normal" font-weight="400" font-stretch="normal" font-size="83" text-anchor="start" direction="ltr" writing-mode="lr-tb" unicode-bidi="normal" text-decoration="none" transform="matrix(1 0 0 1 3180.12 599)">OpenAPI<tspan fill="#000000" fill-opacity="1" font-family="Arial,Arial_MSFontService,sans-serif" font-style="normal" font-variant="normal" font-weight="400" font-stretch="normal" font-size="83" text-anchor="start" direction="ltr" writing-mode="lr-tb" unicode-bidi="normal" text-decoration="none" x="71.0415" y="99">client</tspan></text><rect x="3028.5" y="519.5" width="562" height="276" stroke="#000000" stroke-width="9.16667" stroke-linecap="butt" stroke-linejoin="miter" stroke-miterlimit="8" stroke-opacity="1" fill="#FFFFFF" fill-opacity="1"/><text fill="#000000" fill-opacity="1" font-family="Arial,Arial_MSFontService,sans-serif" font-style="normal" font-variant="normal" font-weight="400" font-stretch="normal" font-size="83" text-anchor="start" direction="ltr" writing-mode="lr-tb" unicode-bidi="normal" text-decoration="none" transform="matrix(1 0 0 1 3141.49 638)">OpenAPI<tspan fill="#000000" fill-opacity="1" font-family="Arial,Arial_MSFontService,sans-serif" font-style="normal" font-variant="normal" font-weight="400" font-stretch="normal" font-size="83" text-anchor="start" direction="ltr" writing-mode="lr-tb" unicode-bidi="normal" text-decoration="none" x="71.0415" y="99">client</tspan></text><rect x="2987.5" y="563.5" width="562" height="276" stroke="#000000" stroke-width="9.16667" stroke-linecap="butt" stroke-linejoin="miter" stroke-miterlimit="8" stroke-opacity="1" fill="#FFFFFF" fill-opacity="1"/><text fill="#000000" fill-opacity="1" font-family="Arial,Arial_MSFontService,sans-serif" font-style="normal" font-variant="normal" font-weight="400" font-stretch="normal" font-size="83" text-anchor="start" direction="ltr" writing-mode="lr-tb" unicode-bidi="normal" text-decoration="none" transform="matrix(1 0 0 1 3093.73 682)">OData v2 <tspan fill="#000000" fill-opacity="1" font-family="Arial,Arial_MSFontService,sans-serif" font-style="normal" font-variant="normal" font-weight="400" font-stretch="normal" font-size="83" text-anchor="start" direction="ltr" writing-mode="lr-tb" unicode-bidi="normal" text-decoration="none" x="57.2918" y="99">clients</tspan></text><rect x="2360.5" y="478.5" width="562" height="276" stroke="#000000" stroke-width="9.16667" stroke-linecap="butt" stroke-linejoin="miter" stroke-miterlimit="8" stroke-opacity="1" fill="#FFFFFF" fill-opacity="1"/><text fill="#000000" fill-opacity="1" font-family="Arial,Arial_MSFontService,sans-serif" font-style="normal" font-variant="normal" font-weight="400" font-stretch="normal" font-size="83" text-anchor="start" direction="ltr" writing-mode="lr-tb" unicode-bidi="normal" text-decoration="none" transform="matrix(1 0 0 1 2473.57 597)">OpenAPI<tspan fill="#000000" fill-opacity="1" font-family="Arial,Arial_MSFontService,sans-serif" font-style="normal" font-variant="normal" font-weight="400" font-stretch="normal" font-size="83" text-anchor="start" direction="ltr" writing-mode="lr-tb" unicode-bidi="normal" text-decoration="none" x="71.0418" y="99">client</tspan></text><rect x="2321.5" y="518.5" width="562" height="275" stroke="#000000" stroke-width="9.16667" stroke-linecap="butt" stroke-linejoin="miter" stroke-miterlimit="8" stroke-opacity="1" fill="#FFFFFF" fill-opacity="1"/><text fill="#000000" fill-opacity="1" font-family="Arial,Arial_MSFontService,sans-serif" font-style="normal" font-variant="normal" font-weight="400" font-stretch="normal" font-size="83" text-anchor="start" direction="ltr" writing-mode="lr-tb" unicode-bidi="normal" text-decoration="none" transform="matrix(1 0 0 1 2434.93 637)">OpenAPI<tspan fill="#000000" fill-opacity="1" font-family="Arial,Arial_MSFontService,sans-serif" font-style="normal" font-variant="normal" font-weight="400" font-stretch="normal" font-size="83" text-anchor="start" direction="ltr" writing-mode="lr-tb" unicode-bidi="normal" text-decoration="none" x="71.0415" y="99">client</tspan></text><rect x="2281.5" y="562.5" width="561" height="276" stroke="#000000" stroke-width="9.16667" stroke-linecap="butt" stroke-linejoin="miter" stroke-miterlimit="8" stroke-opacity="1" fill="#FFFFFF" fill-opacity="1"/><text fill="#000000" fill-opacity="1" font-family="Arial,Arial_MSFontService,sans-serif" font-style="normal" font-variant="normal" font-weight="400" font-stretch="normal" font-size="83" text-anchor="start" direction="ltr" writing-mode="lr-tb" unicode-bidi="normal" text-decoration="none" transform="matrix(1 0 0 1 2387.18 681)">OData v4 <tspan fill="#000000" fill-opacity="1" font-family="Arial,Arial_MSFontService,sans-serif" font-style="normal" font-variant="normal" font-weight="400" font-stretch="normal" font-size="83" text-anchor="start" direction="ltr" writing-mode="lr-tb" unicode-bidi="normal" text-decoration="none" x="57.2915" y="99">clients</tspan></text></g></svg>