<svg width="2805" height="2291" xmlns="http://www.w3.org/2000/svg" xmlns:xlink="http://www.w3.org/1999/xlink" xml:space="preserve" overflow="hidden"><defs><clipPath id="clip0"><rect x="568" y="87" width="2805" height="2291"/></clipPath></defs><g clip-path="url(#clip0)" transform="translate(-568 -87)"><path d="M2151.5 1360 2337 1174.5 2522.5 1360 2337 1545.5Z" stroke="#000000" stroke-width="9.16667" stroke-linecap="butt" stroke-linejoin="miter" stroke-miterlimit="8" stroke-opacity="1" fill="none" fill-rule="evenodd"/><text fill="#000000" fill-opacity="1" font-family="Arial,Arial_MSFontService,sans-serif" font-style="normal" font-variant="normal" font-weight="400" font-stretch="normal" font-size="46" text-anchor="start" direction="ltr" writing-mode="lr-tb" unicode-bidi="normal" text-decoration="none" transform="matrix(1 0 0 1 2256.53 1349)">onPrem<tspan fill="#000000" fill-opacity="1" font-family="Arial,Arial_MSFontService,sans-serif" font-style="normal" font-variant="normal" font-weight="400" font-stretch="normal" font-size="46" text-anchor="start" direction="ltr" writing-mode="lr-tb" unicode-bidi="normal" text-decoration="none" x="-5.15625" y="55">system?</tspan></text><rect x="1690.5" y="2228.5" width="372" height="130" stroke="#000000" stroke-width="9.16667" stroke-linecap="butt" stroke-linejoin="miter" stroke-miterlimit="8" stroke-opacity="1" fill="none"/><text fill="#000000" fill-opacity="1" font-family="Arial,Arial_MSFontService,sans-serif" font-style="normal" font-variant="normal" font-weight="400" font-stretch="normal" font-size="46" text-anchor="start" direction="ltr" writing-mode="lr-tb" unicode-bidi="normal" text-decoration="none" transform="matrix(1 0 0 1 1737.59 2283)">fix onPremise <tspan fill="#000000" fill-opacity="1" font-family="Arial,Arial_MSFontService,sans-serif" font-style="normal" font-variant="normal" font-weight="400" font-stretch="normal" font-size="46" text-anchor="start" direction="ltr" writing-mode="lr-tb" unicode-bidi="normal" text-decoration="none" x="73.6083" y="55">issues</tspan></text><path d="M2151.5 1989 2337 1803.5 2522.5 1989 2337 2174.5Z" stroke="#000000" stroke-width="9.16667" stroke-linecap="butt" stroke-linejoin="miter" stroke-miterlimit="8" stroke-opacity="1" fill="none" fill-rule="evenodd"/><text fill="#000000" fill-opacity="1" font-family="Arial,Arial_MSFontService,sans-serif" font-style="normal" font-variant="normal" font-weight="400" font-stretch="normal" font-size="46" text-anchor="start" direction="ltr" writing-mode="lr-tb" unicode-bidi="normal" text-decoration="none" transform="matrix(1 0 0 1 2279.41 1951)">found <tspan fill="#000000" fill-opacity="1" font-family="Arial,Arial_MSFontService,sans-serif" font-style="normal" font-variant="normal" font-weight="400" font-stretch="normal" font-size="46" text-anchor="start" direction="ltr" writing-mode="lr-tb" unicode-bidi="normal" text-decoration="none" x="26.354" y="55">log </tspan><tspan fill="#000000" fill-opacity="1" font-family="Arial,Arial_MSFontService,sans-serif" font-style="normal" font-variant="normal" font-weight="400" font-stretch="normal" font-size="46" text-anchor="start" direction="ltr" writing-mode="lr-tb" unicode-bidi="normal" text-decoration="none" x="-24.3377" y="110">entries?</tspan></text><rect x="1690.5" y="1923.5" width="372" height="130" stroke="#000000" stroke-width="9.16667" stroke-linecap="butt" stroke-linejoin="miter" stroke-miterlimit="8" stroke-opacity="1" fill="none"/><text fill="#000000" fill-opacity="1" font-family="Arial,Arial_MSFontService,sans-serif" font-style="normal" font-variant="normal" font-weight="400" font-stretch="normal" font-size="46" text-anchor="start" direction="ltr" writing-mode="lr-tb" unicode-bidi="normal" text-decoration="none" transform="matrix(1 0 0 1 1730.42 1978)">fix  connection <tspan fill="#000000" fill-opacity="1" font-family="Arial,Arial_MSFontService,sans-serif" font-style="normal" font-variant="normal" font-weight="400" font-stretch="normal" font-size="46" text-anchor="start" direction="ltr" writing-mode="lr-tb" unicode-bidi="normal" text-decoration="none" x="80.7813" y="55">issues</tspan></text><rect x="2151.5" y="1609.5" width="371" height="130" stroke="#000000" stroke-width="9.16667" stroke-linecap="butt" stroke-linejoin="miter" stroke-miterlimit="8" stroke-opacity="1" fill="none"/><text fill="#000000" fill-opacity="1" font-family="Arial,Arial_MSFontService,sans-serif" font-style="normal" font-variant="normal" font-weight="400" font-stretch="normal" font-size="46" text-anchor="start" direction="ltr" writing-mode="lr-tb" unicode-bidi="normal" text-decoration="none" transform="matrix(1 0 0 1 2257.96 1664)">a<tspan fill="#000000" fill-opacity="1" font-family="Arial,Arial_MSFontService,sans-serif" font-style="normal" font-variant="normal" font-weight="400" font-stretch="normal" font-size="46" text-anchor="start" direction="ltr" writing-mode="lr-tb" unicode-bidi="normal" text-decoration="none" x="25.2085" y="0">ctivate </tspan><tspan fill="#000000" fill-opacity="1" font-family="Arial,Arial_MSFontService,sans-serif" font-style="normal" font-variant="normal" font-weight="400" font-stretch="normal" font-size="46" text-anchor="start" direction="ltr" writing-mode="lr-tb" unicode-bidi="normal" text-decoration="none" x="-55.5728" y="55">backend logs</tspan></text><rect x="2151.5" y="94.5" width="372" height="130" stroke="#000000" stroke-width="9.16667" stroke-linecap="butt" stroke-linejoin="miter" stroke-miterlimit="8" stroke-opacity="1" fill="none"/><text fill="#000000" fill-opacity="1" font-family="Arial,Arial_MSFontService,sans-serif" font-style="normal" font-variant="normal" font-weight="400" font-stretch="normal" font-size="46" text-anchor="start" direction="ltr" writing-mode="lr-tb" unicode-bidi="normal" text-decoration="none" transform="matrix(1 0 0 1 2214.73 149)">use minimal <tspan fill="#000000" fill-opacity="1" font-family="Arial,Arial_MSFontService,sans-serif" font-style="normal" font-variant="normal" font-weight="400" font-stretch="normal" font-size="46" text-anchor="start" direction="ltr" writing-mode="lr-tb" unicode-bidi="normal" text-decoration="none" x="35.8189" y="55">example</tspan></text><path d="M2151.5 471 2337 285.5 2522.5 471 2337 656.5Z" stroke="#000000" stroke-width="9.16667" stroke-linecap="butt" stroke-linejoin="miter" stroke-miterlimit="8" stroke-opacity="1" fill="none" fill-rule="evenodd"/><text fill="#000000" fill-opacity="1" font-family="Arial,Arial_MSFontService,sans-serif" font-style="normal" font-variant="normal" font-weight="400" font-stretch="normal" font-size="46" text-anchor="start" direction="ltr" writing-mode="lr-tb" unicode-bidi="normal" text-decoration="none" transform="matrix(1 0 0 1 2250.23 461)">example <tspan fill="#000000" fill-opacity="1" font-family="Arial,Arial_MSFontService,sans-serif" font-style="normal" font-variant="normal" font-weight="400" font-stretch="normal" font-size="46" text-anchor="start" direction="ltr" writing-mode="lr-tb" unicode-bidi="normal" text-decoration="none" x="13.75" y="55">works?</tspan></text><path d="M2151.5 903 2337 717.5 2522.5 903 2337 1088.5Z" stroke="#000000" stroke-width="9.16667" stroke-linecap="butt" stroke-linejoin="miter" stroke-miterlimit="8" stroke-opacity="1" fill="none" fill-rule="evenodd"/><text fill="#000000" fill-opacity="1" font-family="Arial,Arial_MSFontService,sans-serif" font-style="normal" font-variant="normal" font-weight="400" font-stretch="normal" font-size="46" text-anchor="start" direction="ltr" writing-mode="lr-tb" unicode-bidi="normal" text-decoration="none" transform="matrix(1 0 0 1 2304.94 855)">get <tspan fill="#000000" fill-opacity="1" font-family="Arial,Arial_MSFontService,sans-serif" font-style="normal" font-variant="normal" font-weight="400" font-stretch="normal" font-size="37" text-anchor="start" direction="ltr" writing-mode="lr-tb" unicode-bidi="normal" text-decoration="none" x="-57.8645" y="55">destination</tspan><tspan fill="#000000" fill-opacity="1" font-family="Arial,Arial_MSFontService,sans-serif" font-style="normal" font-variant="normal" font-weight="400" font-stretch="normal" font-size="46" text-anchor="start" direction="ltr" writing-mode="lr-tb" unicode-bidi="normal" text-decoration="none" x="-29.4937" y="110">error?</tspan></text><rect x="1690.5" y="840.5" width="372" height="130" stroke="#000000" stroke-width="9.16667" stroke-linecap="butt" stroke-linejoin="miter" stroke-miterlimit="8" stroke-opacity="1" fill="none"/><text fill="#000000" fill-opacity="1" font-family="Arial,Arial_MSFontService,sans-serif" font-style="normal" font-variant="normal" font-weight="400" font-stretch="normal" font-size="46" text-anchor="start" direction="ltr" writing-mode="lr-tb" unicode-bidi="normal" text-decoration="none" transform="matrix(1 0 0 1 1736.73 895)">fix destintaion <tspan fill="#000000" fill-opacity="1" font-family="Arial,Arial_MSFontService,sans-serif" font-style="normal" font-variant="normal" font-weight="400" font-stretch="normal" font-size="46" text-anchor="start" direction="ltr" writing-mode="lr-tb" unicode-bidi="normal" text-decoration="none" x="74.4793" y="55">issues</tspan></text><rect x="1690.5" y="1294.5" width="372" height="130" stroke="#000000" stroke-width="9.16667" stroke-linecap="butt" stroke-linejoin="miter" stroke-miterlimit="8" stroke-opacity="1" fill="none"/><text fill="#000000" fill-opacity="1" font-family="Arial,Arial_MSFontService,sans-serif" font-style="normal" font-variant="normal" font-weight="400" font-stretch="normal" font-size="46" text-anchor="start" direction="ltr" writing-mode="lr-tb" unicode-bidi="normal" text-decoration="none" transform="matrix(1 0 0 1 1792.3 1349)">fix cloud <tspan fill="#000000" fill-opacity="1" font-family="Arial,Arial_MSFontService,sans-serif" font-style="normal" font-variant="normal" font-weight="400" font-stretch="normal" font-size="46" text-anchor="start" direction="ltr" writing-mode="lr-tb" unicode-bidi="normal" text-decoration="none" x="18.9063" y="55">issues</tspan></text><path d="M2725.5 893 2911 707.5 3096.5 893 2911 1078.5Z" stroke="#000000" stroke-width="9.16667" stroke-linecap="butt" stroke-linejoin="miter" stroke-miterlimit="8" stroke-opacity="1" fill="none" fill-rule="evenodd"/><text fill="#000000" fill-opacity="1" font-family="Arial,Arial_MSFontService,sans-serif" font-style="normal" font-variant="normal" font-weight="400" font-stretch="normal" font-size="46" text-anchor="start" direction="ltr" writing-mode="lr-tb" unicode-bidi="normal" text-decoration="none" transform="matrix(1 0 0 1 2861.32 882)">co<tspan fill="#000000" fill-opacity="1" font-family="Arial,Arial_MSFontService,sans-serif" font-style="normal" font-variant="normal" font-weight="400" font-stretch="normal" font-size="46" text-anchor="start" direction="ltr" writing-mode="lr-tb" unicode-bidi="normal" text-decoration="none" x="48.125" y="0">de </tspan><tspan fill="#000000" fill-opacity="1" font-family="Arial,Arial_MSFontService,sans-serif" font-style="normal" font-variant="normal" font-weight="400" font-stretch="normal" font-size="46" text-anchor="start" direction="ltr" writing-mode="lr-tb" unicode-bidi="normal" text-decoration="none" x="-23.1917" y="55">works?</tspan></text><rect x="2724.5" y="1161.5" width="372" height="130" stroke="#000000" stroke-width="9.16667" stroke-linecap="butt" stroke-linejoin="miter" stroke-miterlimit="8" stroke-opacity="1" fill="none"/><text fill="#000000" fill-opacity="1" font-family="Arial,Arial_MSFontService,sans-serif" font-style="normal" font-variant="normal" font-weight="400" font-stretch="normal" font-size="46" text-anchor="start" direction="ltr" writing-mode="lr-tb" unicode-bidi="normal" text-decoration="none" transform="matrix(1 0 0 1 2767.01 1244)">find difference</text><path d="M846.5 904 1032 718.5 1217.5 904 1032 1089.5Z" stroke="#000000" stroke-width="9.16667" stroke-linecap="butt" stroke-linejoin="miter" stroke-miterlimit="8" stroke-opacity="1" fill="none" fill-rule="evenodd"/><text fill="#000000" fill-opacity="1" font-family="Arial,Arial_MSFontService,sans-serif" font-style="normal" font-variant="normal" font-weight="400" font-stretch="normal" font-size="46" text-anchor="start" direction="ltr" writing-mode="lr-tb" unicode-bidi="normal" text-decoration="none" transform="matrix(1 0 0 1 981.024 894)">need <tspan fill="#000000" fill-opacity="1" font-family="Arial,Arial_MSFontService,sans-serif" font-style="normal" font-variant="normal" font-weight="400" font-stretch="normal" font-size="46" text-anchor="start" direction="ltr" writing-mode="lr-tb" unicode-bidi="normal" text-decoration="none" x="-5.15625" y="55">help</tspan><tspan fill="#000000" fill-opacity="1" font-family="Arial,Arial_MSFontService,sans-serif" font-style="normal" font-variant="normal" font-weight="400" font-stretch="normal" font-size="46" text-anchor="start" direction="ltr" writing-mode="lr-tb" unicode-bidi="normal" text-decoration="none" x="80.7813" y="55">?</tspan></text><path d="M1257.5 903 1443 717.5 1628.5 903 1443 1088.5Z" stroke="#000000" stroke-width="9.16667" stroke-linecap="butt" stroke-linejoin="miter" stroke-miterlimit="8" stroke-opacity="1" fill="none" fill-rule="evenodd"/><text fill="#000000" fill-opacity="1" font-family="Arial,Arial_MSFontService,sans-serif" font-style="normal" font-variant="normal" font-weight="400" font-stretch="normal" font-size="46" text-anchor="start" direction="ltr" writing-mode="lr-tb" unicode-bidi="normal" text-decoration="none" transform="matrix(1 0 0 1 1391.82 893)">n<tspan fill="#000000" fill-opacity="1" font-family="Arial,Arial_MSFontService,sans-serif" font-style="normal" font-variant="normal" font-weight="400" font-stretch="normal" font-size="46" text-anchor="start" direction="ltr" writing-mode="lr-tb" unicode-bidi="normal" text-decoration="none" x="25.2084" y="0">eed </tspan><tspan fill="#000000" fill-opacity="1" font-family="Arial,Arial_MSFontService,sans-serif" font-style="normal" font-variant="normal" font-weight="400" font-stretch="normal" font-size="46" text-anchor="start" direction="ltr" writing-mode="lr-tb" unicode-bidi="normal" text-decoration="none" x="-5.15625" y="55">help?</tspan></text><path d="M1344.5 1236.5C1344.5 1181.82 1389.5 1137.5 1445 1137.5 1500.5 1137.5 1545.5 1181.82 1545.5 1236.5 1545.5 1291.18 1500.5 1335.5 1445 1335.5 1389.5 1335.5 1344.5 1291.18 1344.5 1236.5Z" stroke="#000000" stroke-width="9.16667" stroke-linecap="butt" stroke-linejoin="miter" stroke-miterlimit="8" stroke-opacity="1" fill="none" fill-rule="evenodd"/><text fill="#000000" fill-opacity="1" font-family="Arial,Arial_MSFontService,sans-serif" font-style="normal" font-variant="normal" font-weight="400" font-stretch="normal" font-size="46" text-anchor="start" direction="ltr" writing-mode="lr-tb" unicode-bidi="normal" text-decoration="none" transform="matrix(1 0 0 1 1394.41 1199)">o<tspan fill="#000000" fill-opacity="1" font-family="Arial,Arial_MSFontService,sans-serif" font-style="normal" font-variant="normal" font-weight="400" font-stretch="normal" font-size="46" text-anchor="start" direction="ltr" writing-mode="lr-tb" unicode-bidi="normal" text-decoration="none" x="25.2084" y="0">pen </tspan><tspan fill="#000000" fill-opacity="1" font-family="Arial,Arial_MSFontService,sans-serif" font-style="normal" font-variant="normal" font-weight="400" font-stretch="normal" font-size="46" text-anchor="start" direction="ltr" writing-mode="lr-tb" unicode-bidi="normal" text-decoration="none" x="3.4375" y="55">SDK </tspan><tspan fill="#000000" fill-opacity="1" font-family="Arial,Arial_MSFontService,sans-serif" font-style="normal" font-variant="normal" font-weight="400" font-stretch="normal" font-size="46" text-anchor="start" direction="ltr" writing-mode="lr-tb" unicode-bidi="normal" text-decoration="none" x="-2.8645" y="110">issue</tspan></text><path d="M4.58327-0.0235104 4.77861 38.0578-4.38793 38.1048-4.58327 0.0235104ZM13.9217 33.4275 0.312894 60.9977-13.578 33.5686Z" fill="#000000" fill-rule="nonzero" fill-opacity="1" transform="matrix(-1 0 0 1 2336.81 224.5)"/><path d="M4.58333-2.70248e-05 4.58356 38.2896-4.58311 38.2896-4.58333 2.70248e-05ZM13.7502 33.7062 0.000360892 61.2063-13.7498 33.7063Z" fill="#000000" fill-rule="nonzero" fill-opacity="1" transform="matrix(-1 0 0 1 2336.5 656.5)"/><path d="M4.58333-1.93181e-05 4.5836 62.7072-4.58307 62.7072-4.58333 1.93181e-05ZM13.7502 58.1238 0.000360892 85.6239-13.7498 58.1239Z" fill="#000000" fill-rule="nonzero" fill-opacity="1" transform="matrix(-1 0 0 1 2336.5 1088.5)"/><path d="M4.58333-2.57959e-05 4.58357 41.2056-4.5831 41.2056-4.58333 2.57959e-05ZM13.7502 36.6222 0.000360892 64.1223-13.7498 36.6224Z" fill="#000000" fill-rule="nonzero" fill-opacity="1" transform="matrix(-1 0 0 1 2336.5 1545.5)"/><path d="M4.58328-0.0223648 4.78435 41.1835-4.38221 41.2282-4.58328 0.0223648ZM13.9285 36.5555 0.312894 64.1223-13.5711 36.6897Z" fill="#000000" fill-rule="nonzero" fill-opacity="1" transform="matrix(-1 0 0 1 2336.81 1739.5)"/><path d="M2151.75 1364.08 2085.42 1364.08 2085.42 1354.92 2151.75 1354.92ZM2090 1373.25 2062.5 1359.5 2090 1345.75Z" fill="#000000" fill-rule="nonzero" fill-opacity="1"/><path d="M0.0982826-4.58228 66.4323-3.15952 66.2358 6.00504-0.0982826 4.58228ZM62.0466-12.4224 89.2454 1.91417 61.4569 15.0713Z" fill="#000000" fill-rule="nonzero" fill-opacity="1" transform="matrix(-1 0 0 1 2151.75 903.5)"/><path d="M1690.81 909.996 1651.27 908.783 1651.55 899.621 1691.09 900.834ZM1655.57 918.086 1628.5 903.5 1656.41 890.599Z" fill="#000000" fill-rule="nonzero" fill-opacity="1"/><path d="M1690.22 1364.29 1031.5 1364.29C1028.97 1364.29 1026.92 1362.23 1026.92 1359.7L1026.92 1112.42 1036.08 1112.42 1036.08 1359.7 1031.5 1355.12 1690.22 1355.12ZM1017.75 1117 1031.5 1089.5 1045.25 1117Z" fill="#000000" fill-rule="nonzero" fill-opacity="1"/><path d="M1690.22 2298.26 1031.5 2298.26C1028.97 2298.26 1026.92 2296.21 1026.92 2293.68L1026.92 1112.42 1036.08 1112.42 1036.08 2293.68 1031.5 2289.09 1690.22 2289.09ZM1017.75 1117 1031.5 1089.5 1045.25 1117Z" fill="#000000" fill-rule="nonzero" fill-opacity="1"/><path d="M1690.22 1992.94 1031.5 1992.94C1028.97 1992.94 1026.92 1990.89 1026.92 1988.35L1026.92 1112.42 1036.08 1112.42 1036.08 1988.35 1031.5 1983.77 1690.22 1983.77ZM1017.75 1117 1031.5 1089.5 1045.25 1117Z" fill="#000000" fill-rule="nonzero" fill-opacity="1"/><path d="M2151.41 1993.55 2085.39 1993.2 2085.44 1984.04 2151.46 1984.38ZM2089.93 2002.39 2062.5 1988.5 2090.07 1974.89Z" fill="#000000" fill-rule="nonzero" fill-opacity="1"/><path d="M1026.92 719.076 1026.92 471.5C1026.92 468.969 1028.97 466.917 1031.5 466.917L2128.12 466.917 2128.12 476.083 1031.5 476.083 1036.08 471.5 1036.08 719.076ZM2123.54 457.75 2151.04 471.5 2123.54 485.25Z" fill="#000000" fill-rule="nonzero" fill-opacity="1"/><path d="M1437.92 718.18 1437.92 471.5C1437.92 468.969 1439.97 466.917 1442.5 466.917L2128.32 466.917 2128.32 476.083 1442.5 476.083 1447.08 471.5 1447.08 718.18ZM2123.74 457.75 2151.24 471.5 2123.74 485.25Z" fill="#000000" fill-rule="nonzero" fill-opacity="1"/><path d="M2725.5 1597 2911 1411.5 3096.5 1597 2911 1782.5Z" stroke="#000000" stroke-width="9.16667" stroke-linecap="butt" stroke-linejoin="miter" stroke-miterlimit="8" stroke-opacity="1" fill="none" fill-rule="evenodd"/><text fill="#000000" fill-opacity="1" font-family="Arial,Arial_MSFontService,sans-serif" font-style="normal" font-variant="normal" font-weight="400" font-stretch="normal" font-size="46" text-anchor="start" direction="ltr" writing-mode="lr-tb" unicode-bidi="normal" text-decoration="none" transform="matrix(1 0 0 1 2859.79 1586)">need <tspan fill="#000000" fill-opacity="1" font-family="Arial,Arial_MSFontService,sans-serif" font-style="normal" font-variant="normal" font-weight="400" font-stretch="normal" font-size="46" text-anchor="start" direction="ltr" writing-mode="lr-tb" unicode-bidi="normal" text-decoration="none" x="-5.15625" y="55">help?</tspan></text><path d="M2522.5 466.917 2911.18 466.917C2913.71 466.917 2915.76 468.969 2915.76 471.5L2915.76 684.78 2906.59 684.78 2906.59 471.5 2911.18 476.083 2522.5 476.083ZM2924.93 680.197 2911.18 707.697 2897.43 680.197Z" fill="#000000" fill-rule="nonzero" fill-opacity="1"/><path d="M0 4.58333-82.5 4.58333-77.9167 0-77.9167 703.932-82.5 699.349-22.524 699.349-22.524 708.516-82.5 708.516C-85.0313 708.516-87.0833 706.464-87.0833 703.932L-87.0833 0C-87.0833-2.53131-85.0313-4.58333-82.5-4.58333L0-4.58333ZM-27.1073 690.182 0.392651 703.932-27.1073 717.682Z" fill="#000000" fill-rule="nonzero" fill-opacity="1" transform="matrix(1 -1.22465e-16 -1.22465e-16 -1 2725.5 1596.43)"/><path d="M574.5 903C574.5 848.6 619.495 804.5 675 804.5 730.505 804.5 775.5 848.6 775.5 903 775.5 957.4 730.505 1001.5 675 1001.5 619.495 1001.5 574.5 957.4 574.5 903Z" stroke="#000000" stroke-width="9.16667" stroke-linecap="butt" stroke-linejoin="miter" stroke-miterlimit="8" stroke-opacity="1" fill="none" fill-rule="evenodd"/><text fill="#000000" fill-opacity="1" font-family="Arial,Arial_MSFontService,sans-serif" font-style="normal" font-variant="normal" font-weight="400" font-stretch="normal" font-size="46" text-anchor="start" direction="ltr" writing-mode="lr-tb" unicode-bidi="normal" text-decoration="none" transform="matrix(1 0 0 1 624.08 865)">not a <tspan fill="#000000" fill-opacity="1" font-family="Arial,Arial_MSFontService,sans-serif" font-style="normal" font-variant="normal" font-weight="400" font-stretch="normal" font-size="46" text-anchor="start" direction="ltr" writing-mode="lr-tb" unicode-bidi="normal" text-decoration="none" x="3.4375" y="55">SDK </tspan><tspan fill="#000000" fill-opacity="1" font-family="Arial,Arial_MSFontService,sans-serif" font-style="normal" font-variant="normal" font-weight="400" font-stretch="normal" font-size="46" text-anchor="start" direction="ltr" writing-mode="lr-tb" unicode-bidi="normal" text-decoration="none" x="-2.86456" y="110">issue</tspan></text><path d="M2915.73 1078.5 2915.73 1120.19C2915.73 1122.73 2913.68 1124.78 2911.15 1124.78L2910.5 1124.78 2915.08 1120.19 2915.08 1138.97 2905.92 1138.97 2905.92 1120.19C2905.92 1117.66 2907.97 1115.61 2910.5 1115.61L2911.15 1115.61 2906.56 1120.19 2906.56 1078.5ZM2924.25 1134.39 2910.5 1161.89 2896.75 1134.39Z" fill="#000000" fill-rule="nonzero" fill-opacity="1"/><path d="M0-4.58333 59.8378-4.58333C62.3691-4.58333 64.4211-2.53131 64.4211 0L64.4211 0.255151 59.8378-4.32818 96.7585-4.32818 96.7585 4.83848 59.8378 4.83848C57.3065 4.83848 55.2544 2.78646 55.2544 0.255151L55.2544 0 59.8378 4.58333 0 4.58333ZM92.1752-13.4948 119.675 0.255151 92.1752 14.0052Z" fill="#000000" fill-rule="nonzero" fill-opacity="1" transform="matrix(1.83697e-16 1 1 -1.83697e-16 2910.5 1291.5)"/><path d="M3165.5 892.5C3165.5 837.824 3210.27 793.5 3265.5 793.5 3320.73 793.5 3365.5 837.824 3365.5 892.5 3365.5 947.176 3320.73 991.5 3265.5 991.5 3210.27 991.5 3165.5 947.176 3165.5 892.5Z" stroke="#000000" stroke-width="9.16667" stroke-linecap="butt" stroke-linejoin="miter" stroke-miterlimit="8" stroke-opacity="1" fill="none" fill-rule="evenodd"/><text fill="#000000" fill-opacity="1" font-family="Arial,Arial_MSFontService,sans-serif" font-style="normal" font-variant="normal" font-weight="400" font-stretch="normal" font-size="46" text-anchor="start" direction="ltr" writing-mode="lr-tb" unicode-bidi="normal" text-decoration="none" transform="matrix(1 0 0 1 3199.16 910)">s<tspan fill="#000000" fill-opacity="1" font-family="Arial,Arial_MSFontService,sans-serif" font-style="normal" font-variant="normal" font-weight="400" font-stretch="normal" font-size="46" text-anchor="start" direction="ltr" writing-mode="lr-tb" unicode-bidi="normal" text-decoration="none" x="22.9167" y="0">olved</tspan></text><path d="M2341.49 2174.5 2341.49 2293.89C2341.49 2296.42 2339.44 2298.47 2336.91 2298.47L2085.42 2298.47 2085.42 2289.3 2336.91 2289.3 2332.32 2293.89 2332.32 2174.5ZM2090 2307.64 2062.5 2293.89 2090 2280.14Z" fill="#000000" fill-rule="nonzero" fill-opacity="1"/><path d="M2811.5 1956.5C2811.5 1901.82 2856.5 1857.5 2912 1857.5 2967.5 1857.5 3012.5 1901.82 3012.5 1956.5 3012.5 2011.18 2967.5 2055.5 2912 2055.5 2856.5 2055.5 2811.5 2011.18 2811.5 1956.5Z" stroke="#000000" stroke-width="9.16667" stroke-linecap="butt" stroke-linejoin="miter" stroke-miterlimit="8" stroke-opacity="1" fill="none" fill-rule="evenodd"/><text fill="#000000" fill-opacity="1" font-family="Arial,Arial_MSFontService,sans-serif" font-style="normal" font-variant="normal" font-weight="400" font-stretch="normal" font-size="46" text-anchor="start" direction="ltr" writing-mode="lr-tb" unicode-bidi="normal" text-decoration="none" transform="matrix(1 0 0 1 2860.91 1918)">not a <tspan fill="#000000" fill-opacity="1" font-family="Arial,Arial_MSFontService,sans-serif" font-style="normal" font-variant="normal" font-weight="400" font-stretch="normal" font-size="46" text-anchor="start" direction="ltr" writing-mode="lr-tb" unicode-bidi="normal" text-decoration="none" x="3.4375" y="55">SDK </tspan><tspan fill="#000000" fill-opacity="1" font-family="Arial,Arial_MSFontService,sans-serif" font-style="normal" font-variant="normal" font-weight="400" font-stretch="normal" font-size="46" text-anchor="start" direction="ltr" writing-mode="lr-tb" unicode-bidi="normal" text-decoration="none" x="-2.86475" y="110">issue</tspan></text><path d="M0-4.58333 34.3093-4.58333C36.8406-4.58333 38.8927-2.53131 38.8927 0L38.8927 0.000360892 34.3093-4.58297 45.7016-4.58297 45.7016 4.58369 34.3093 4.58369C31.778 4.58369 29.726 2.53167 29.726 0.000360892L29.726 0 34.3093 4.58333 0 4.58333ZM41.1183-13.7496 68.6183 0.000360892 41.1183 13.7504Z" fill="#000000" fill-rule="nonzero" fill-opacity="1" transform="matrix(1 0 0 -1 3096.5 892.5)"/><path d="M0-4.58333 37.6638-4.58333C40.1951-4.58333 42.2471-2.53131 42.2471 0L42.2471 1.11985 37.6638-3.46348 52.411-3.46348 52.411 5.70318 37.6638 5.70318C35.1325 5.70318 33.0805 3.65115 33.0805 1.11985L33.0805 0 37.6638 4.58333 0 4.58333ZM47.8276-12.6302 75.3276 1.11985 47.8276 14.8698Z" fill="#000000" fill-rule="nonzero" fill-opacity="1" transform="matrix(1.83697e-16 1 1 -1.83697e-16 2910.5 1782.5)"/><path d="M0.074658-4.58273 26.5507-4.1514 26.4014 5.01405-0.074658 4.58273ZM23.2071-13.689 49.291 2.58796 20.6191 13.689Z" fill="#000000" fill-rule="nonzero" fill-opacity="1" transform="matrix(1.83697e-16 1 1 -1.83697e-16 1442.5 1088.5)"/><text fill="#000000" fill-opacity="1" font-family="Arial,Arial_MSFontService,sans-serif" font-style="normal" font-variant="normal" font-weight="400" font-stretch="normal" font-size="37" text-anchor="start" direction="ltr" writing-mode="lr-tb" unicode-bidi="normal" text-decoration="none" transform="matrix(1 0 0 1 2523.56 449)">yes<tspan fill="#000000" fill-opacity="1" font-family="Arial,Arial_MSFontService,sans-serif" font-style="normal" font-variant="normal" font-weight="400" font-stretch="normal" font-size="37" text-anchor="start" direction="ltr" writing-mode="lr-tb" unicode-bidi="normal" text-decoration="none" x="572.12" y="408">yes</tspan><tspan fill="#000000" fill-opacity="1" font-family="Arial,Arial_MSFontService,sans-serif" font-style="normal" font-variant="normal" font-weight="400" font-stretch="normal" font-size="37" text-anchor="start" direction="ltr" writing-mode="lr-tb" unicode-bidi="normal" text-decoration="none" x="409.018" y="1369">yes</tspan><tspan fill="#000000" fill-opacity="1" font-family="Arial,Arial_MSFontService,sans-serif" font-style="normal" font-variant="normal" font-weight="400" font-stretch="normal" font-size="37" text-anchor="start" direction="ltr" writing-mode="lr-tb" unicode-bidi="normal" text-decoration="none" x="-156.344" y="1761">yes</tspan><tspan fill="#000000" fill-opacity="1" font-family="Arial,Arial_MSFontService,sans-serif" font-style="normal" font-variant="normal" font-weight="400" font-stretch="normal" font-size="37" text-anchor="start" direction="ltr" writing-mode="lr-tb" unicode-bidi="normal" text-decoration="none" x="-156.344" y="1115">yes</tspan></text><path d="M846.615 908.979 811.057 908.979C808.526 908.979 806.474 906.927 806.474 904.396L806.474 903.5 811.057 908.083 798.417 908.083 798.417 898.917 811.057 898.917C813.589 898.917 815.641 900.969 815.641 903.5L815.641 904.396 811.057 899.812 846.615 899.812ZM803 917.25 775.5 903.5 803 889.75Z" fill="#000000" fill-rule="nonzero" fill-opacity="1"/><text fill="#000000" fill-opacity="1" font-family="Arial,Arial_MSFontService,sans-serif" font-style="normal" font-variant="normal" font-weight="400" font-stretch="normal" font-size="37" text-anchor="start" direction="ltr" writing-mode="lr-tb" unicode-bidi="normal" text-decoration="none" transform="matrix(1 0 0 1 789.94 879)">yes<tspan fill="#000000" fill-opacity="1" font-family="Arial,Arial_MSFontService,sans-serif" font-style="normal" font-variant="normal" font-weight="400" font-stretch="normal" font-size="37" text-anchor="start" direction="ltr" writing-mode="lr-tb" unicode-bidi="normal" text-decoration="none" x="1564.55" y="-198">no</tspan><tspan fill="#000000" fill-opacity="1" font-family="Arial,Arial_MSFontService,sans-serif" font-style="normal" font-variant="normal" font-weight="400" font-stretch="normal" font-size="37" text-anchor="start" direction="ltr" writing-mode="lr-tb" unicode-bidi="normal" text-decoration="none" x="1564.55" y="237">no</tspan><tspan fill="#000000" fill-opacity="1" font-family="Arial,Arial_MSFontService,sans-serif" font-style="normal" font-variant="normal" font-weight="400" font-stretch="normal" font-size="37" text-anchor="start" direction="ltr" writing-mode="lr-tb" unicode-bidi="normal" text-decoration="none" x="1306.12" y="451">no</tspan><tspan fill="#000000" fill-opacity="1" font-family="Arial,Arial_MSFontService,sans-serif" font-style="normal" font-variant="normal" font-weight="400" font-stretch="normal" font-size="37" text-anchor="start" direction="ltr" writing-mode="lr-tb" unicode-bidi="normal" text-decoration="none" x="2142.64" y="226">no</tspan><tspan fill="#000000" fill-opacity="1" font-family="Arial,Arial_MSFontService,sans-serif" font-style="normal" font-variant="normal" font-weight="400" font-stretch="normal" font-size="37" text-anchor="start" direction="ltr" writing-mode="lr-tb" unicode-bidi="normal" text-decoration="none" x="1870.63" y="753">no</tspan><tspan fill="#000000" fill-opacity="1" font-family="Arial,Arial_MSFontService,sans-serif" font-style="normal" font-variant="normal" font-weight="400" font-stretch="normal" font-size="37" text-anchor="start" direction="ltr" writing-mode="lr-tb" unicode-bidi="normal" text-decoration="none" x="1304.04" y="1087">no</tspan><tspan fill="#000000" fill-opacity="1" font-family="Arial,Arial_MSFontService,sans-serif" font-style="normal" font-variant="normal" font-weight="400" font-stretch="normal" font-size="37" text-anchor="start" direction="ltr" writing-mode="lr-tb" unicode-bidi="normal" text-decoration="none" x="1303.58" y="-10">yes</tspan><tspan fill="#000000" fill-opacity="1" font-family="Arial,Arial_MSFontService,sans-serif" font-style="normal" font-variant="normal" font-weight="400" font-stretch="normal" font-size="37" text-anchor="start" direction="ltr" writing-mode="lr-tb" unicode-bidi="normal" text-decoration="none" x="669.58" y="-172">no</tspan><tspan fill="#000000" fill-opacity="1" font-family="Arial,Arial_MSFontService,sans-serif" font-style="normal" font-variant="normal" font-weight="400" font-stretch="normal" font-size="37" text-anchor="start" direction="ltr" writing-mode="lr-tb" unicode-bidi="normal" text-decoration="none" x="257.384" y="-177">no</tspan><tspan fill="#000000" fill-opacity="1" font-family="Arial,Arial_MSFontService,sans-serif" font-style="normal" font-variant="normal" font-weight="400" font-stretch="normal" font-size="37" text-anchor="start" direction="ltr" writing-mode="lr-tb" unicode-bidi="normal" text-decoration="none" x="677.271" y="225">yes</tspan></text></g></svg>