<svg width="2145" height="1870" xmlns="http://www.w3.org/2000/svg" xmlns:xlink="http://www.w3.org/1999/xlink" xml:space="preserve" overflow="hidden"><defs><clipPath id="clip0"><rect x="1132" y="192" width="2145" height="1870"/></clipPath></defs><g clip-path="url(#clip0)" transform="translate(-1132 -192)"><path d="M2021.82 1577.5 2021.82 1631.3C2021.82 1633.83 2019.77 1635.88 2017.24 1635.88L1577.5 1635.88 1582.08 1631.3 1582.08 1662.19 1572.92 1662.19 1572.92 1631.3C1572.92 1628.77 1574.97 1626.72 1577.5 1626.72L2017.24 1626.72 2012.65 1631.3 2012.65 1577.5ZM1591.25 1657.6 1577.5 1685.1 1563.75 1657.6Z" fill="#000000" fill-rule="nonzero" fill-opacity="1"/><text fill="#000000" fill-opacity="1" font-family="Arial,Arial_MSFontService,sans-serif" font-style="normal" font-variant="normal" font-weight="400" font-stretch="normal" font-size="37" text-anchor="start" direction="ltr" writing-mode="lr-tb" unicode-bidi="normal" text-decoration="none" transform="matrix(1 0 0 1 2187.56 804)">yes<tspan fill="#000000" fill-opacity="1" font-family="Arial,Arial_MSFontService,sans-serif" font-style="normal" font-variant="normal" font-weight="400" font-stretch="normal" font-size="37" text-anchor="start" direction="ltr" writing-mode="lr-tb" unicode-bidi="normal" text-decoration="none" x="-836.573" y="1043">no</tspan></text><rect x="1392.5" y="768.5" width="372" height="130" stroke="#000000" stroke-width="9.16667" stroke-linecap="butt" stroke-linejoin="miter" stroke-miterlimit="8" stroke-opacity="1" fill="none"/><text fill="#000000" fill-opacity="1" font-family="Arial,Arial_MSFontService,sans-serif" font-style="normal" font-variant="normal" font-weight="400" font-stretch="normal" font-size="46" text-anchor="start" direction="ltr" writing-mode="lr-tb" unicode-bidi="normal" text-decoration="none" transform="matrix(1 0 0 1 1438.59 823)">fix <tspan fill="#000000" fill-opacity="1" font-family="Arial,Arial_MSFontService,sans-serif" font-style="normal" font-variant="normal" font-weight="400" font-stretch="normal" font-size="46" text-anchor="start" direction="ltr" writing-mode="lr-tb" unicode-bidi="normal" text-decoration="none" x="58.4375" y="0">destination </tspan><tspan fill="#000000" fill-opacity="1" font-family="Arial,Arial_MSFontService,sans-serif" font-style="normal" font-variant="normal" font-weight="400" font-stretch="normal" font-size="46" text-anchor="start" direction="ltr" writing-mode="lr-tb" unicode-bidi="normal" text-decoration="none" x="74.4793" y="55">issues</tspan></text><rect x="1831.5" y="460.5" width="372" height="130" stroke="#000000" stroke-width="9.16667" stroke-linecap="butt" stroke-linejoin="miter" stroke-miterlimit="8" stroke-opacity="1" fill="none"/><text fill="#000000" fill-opacity="1" font-family="Arial,Arial_MSFontService,sans-serif" font-style="normal" font-variant="normal" font-weight="400" font-stretch="normal" font-size="46" text-anchor="start" direction="ltr" writing-mode="lr-tb" unicode-bidi="normal" text-decoration="none" transform="matrix(1 0 0 1 1895.2 515)">use minimal <tspan fill="#000000" fill-opacity="1" font-family="Arial,Arial_MSFontService,sans-serif" font-style="normal" font-variant="normal" font-weight="400" font-stretch="normal" font-size="46" text-anchor="start" direction="ltr" writing-mode="lr-tb" unicode-bidi="normal" text-decoration="none" x="35.8187" y="55">example</tspan></text><rect x="1391.5" y="1445.5" width="372" height="130" stroke="#000000" stroke-width="9.16667" stroke-linecap="butt" stroke-linejoin="miter" stroke-miterlimit="8" stroke-opacity="1" fill="none"/><text fill="#000000" fill-opacity="1" font-family="Arial,Arial_MSFontService,sans-serif" font-style="normal" font-variant="normal" font-weight="400" font-stretch="normal" font-size="46" text-anchor="start" direction="ltr" writing-mode="lr-tb" unicode-bidi="normal" text-decoration="none" transform="matrix(1 0 0 1 1493.54 1500)">fix cloud <tspan fill="#000000" fill-opacity="1" font-family="Arial,Arial_MSFontService,sans-serif" font-style="normal" font-variant="normal" font-weight="400" font-stretch="normal" font-size="46" text-anchor="start" direction="ltr" writing-mode="lr-tb" unicode-bidi="normal" text-decoration="none" x="18.9063" y="55">issues</tspan></text><rect x="1831.5" y="1447.5" width="372" height="130" stroke="#000000" stroke-width="9.16667" stroke-linecap="butt" stroke-linejoin="miter" stroke-miterlimit="8" stroke-opacity="1" fill="none"/><text fill="#000000" fill-opacity="1" font-family="Arial,Arial_MSFontService,sans-serif" font-style="normal" font-variant="normal" font-weight="400" font-stretch="normal" font-size="46" text-anchor="start" direction="ltr" writing-mode="lr-tb" unicode-bidi="normal" text-decoration="none" transform="matrix(1 0 0 1 1878.87 1502)">fix onPremise <tspan fill="#000000" fill-opacity="1" font-family="Arial,Arial_MSFontService,sans-serif" font-style="normal" font-variant="normal" font-weight="400" font-stretch="normal" font-size="46" text-anchor="start" direction="ltr" writing-mode="lr-tb" unicode-bidi="normal" text-decoration="none" x="73.6084" y="55">issues</tspan></text><rect x="1830.5" y="1272.5" width="371" height="129" stroke="#000000" stroke-width="9.16667" stroke-linecap="butt" stroke-linejoin="miter" stroke-miterlimit="8" stroke-opacity="1" fill="none"/><text fill="#000000" fill-opacity="1" font-family="Arial,Arial_MSFontService,sans-serif" font-style="normal" font-variant="normal" font-weight="400" font-stretch="normal" font-size="46" text-anchor="start" direction="ltr" writing-mode="lr-tb" unicode-bidi="normal" text-decoration="none" transform="matrix(1 0 0 1 1870.18 1327)">fix  connection <tspan fill="#000000" fill-opacity="1" font-family="Arial,Arial_MSFontService,sans-serif" font-style="normal" font-variant="normal" font-weight="400" font-stretch="normal" font-size="46" text-anchor="start" direction="ltr" writing-mode="lr-tb" unicode-bidi="normal" text-decoration="none" x="80.7813" y="55">issues</tspan></text><rect x="1829.5" y="1092.5" width="372" height="130" stroke="#000000" stroke-width="9.16667" stroke-linecap="butt" stroke-linejoin="miter" stroke-miterlimit="8" stroke-opacity="1" fill="none"/><text fill="#000000" fill-opacity="1" font-family="Arial,Arial_MSFontService,sans-serif" font-style="normal" font-variant="normal" font-weight="400" font-stretch="normal" font-size="46" text-anchor="start" direction="ltr" writing-mode="lr-tb" unicode-bidi="normal" text-decoration="none" transform="matrix(1 0 0 1 1936.3 1147)">activate <tspan fill="#000000" fill-opacity="1" font-family="Arial,Arial_MSFontService,sans-serif" font-style="normal" font-variant="normal" font-weight="400" font-stretch="normal" font-size="46" text-anchor="start" direction="ltr" writing-mode="lr-tb" unicode-bidi="normal" text-decoration="none" x="-55.5729" y="55">backend logs</tspan></text><path d="M1392.5 1157 1578 971.5 1763.5 1157 1578 1342.5Z" stroke="#000000" stroke-width="9.16667" stroke-linecap="butt" stroke-linejoin="miter" stroke-miterlimit="8" stroke-opacity="1" fill="none" fill-rule="evenodd"/><text fill="#000000" fill-opacity="1" font-family="Arial,Arial_MSFontService,sans-serif" font-style="normal" font-variant="normal" font-weight="400" font-stretch="normal" font-size="46" text-anchor="start" direction="ltr" writing-mode="lr-tb" unicode-bidi="normal" text-decoration="none" transform="matrix(1 0 0 1 1497.58 1146)">onPrem <tspan fill="#000000" fill-opacity="1" font-family="Arial,Arial_MSFontService,sans-serif" font-style="normal" font-variant="normal" font-weight="400" font-stretch="normal" font-size="46" text-anchor="start" direction="ltr" writing-mode="lr-tb" unicode-bidi="normal" text-decoration="none" x="-5.15625" y="55">system?</tspan></text><path d="M2637.5 1187 2823 1001.5 3008.5 1187 2823 1372.5Z" stroke="#000000" stroke-width="9.16667" stroke-linecap="butt" stroke-linejoin="miter" stroke-miterlimit="8" stroke-opacity="1" fill="none" fill-rule="evenodd"/><text fill="#000000" fill-opacity="1" font-family="Arial,Arial_MSFontService,sans-serif" font-style="normal" font-variant="normal" font-weight="400" font-stretch="normal" font-size="46" text-anchor="start" direction="ltr" writing-mode="lr-tb" unicode-bidi="normal" text-decoration="none" transform="matrix(1 0 0 1 2773.41 1176)">co<tspan fill="#000000" fill-opacity="1" font-family="Arial,Arial_MSFontService,sans-serif" font-style="normal" font-variant="normal" font-weight="400" font-stretch="normal" font-size="46" text-anchor="start" direction="ltr" writing-mode="lr-tb" unicode-bidi="normal" text-decoration="none" x="48.125" y="0">de </tspan><tspan fill="#000000" fill-opacity="1" font-family="Arial,Arial_MSFontService,sans-serif" font-style="normal" font-variant="normal" font-weight="400" font-stretch="normal" font-size="46" text-anchor="start" direction="ltr" writing-mode="lr-tb" unicode-bidi="normal" text-decoration="none" x="-23.1917" y="55">works?</tspan></text><path d="M1831.5 834 2017 648.5 2202.5 834 2017 1019.5Z" stroke="#000000" stroke-width="9.16667" stroke-linecap="butt" stroke-linejoin="miter" stroke-miterlimit="8" stroke-opacity="1" fill="none" fill-rule="evenodd"/><text fill="#000000" fill-opacity="1" font-family="Arial,Arial_MSFontService,sans-serif" font-style="normal" font-variant="normal" font-weight="400" font-stretch="normal" font-size="46" text-anchor="start" direction="ltr" writing-mode="lr-tb" unicode-bidi="normal" text-decoration="none" transform="matrix(1 0 0 1 1930.7 824)">example <tspan fill="#000000" fill-opacity="1" font-family="Arial,Arial_MSFontService,sans-serif" font-style="normal" font-variant="normal" font-weight="400" font-stretch="normal" font-size="46" text-anchor="start" direction="ltr" writing-mode="lr-tb" unicode-bidi="normal" text-decoration="none" x="13.75" y="55">works?</tspan></text><rect x="2637.5" y="1455.5" width="372" height="130" stroke="#000000" stroke-width="9.16667" stroke-linecap="butt" stroke-linejoin="miter" stroke-miterlimit="8" stroke-opacity="1" fill="none"/><text fill="#000000" fill-opacity="1" font-family="Arial,Arial_MSFontService,sans-serif" font-style="normal" font-variant="normal" font-weight="400" font-stretch="normal" font-size="46" text-anchor="start" direction="ltr" writing-mode="lr-tb" unicode-bidi="normal" text-decoration="none" transform="matrix(1 0 0 1 2680.06 1538)">find difference</text><path d="M1814.5 1870.5C1814.5 1815.82 1859.5 1771.5 1915 1771.5 1970.5 1771.5 2015.5 1815.82 2015.5 1870.5 2015.5 1925.18 1970.5 1969.5 1915 1969.5 1859.5 1969.5 1814.5 1925.18 1814.5 1870.5Z" stroke="#000000" stroke-width="9.16667" stroke-linecap="butt" stroke-linejoin="miter" stroke-miterlimit="8" stroke-opacity="1" fill="none" fill-rule="evenodd"/><text fill="#000000" fill-opacity="1" font-family="Arial,Arial_MSFontService,sans-serif" font-style="normal" font-variant="normal" font-weight="400" font-stretch="normal" font-size="46" text-anchor="start" direction="ltr" writing-mode="lr-tb" unicode-bidi="normal" text-decoration="none" transform="matrix(1 0 0 1 1870.44 1860)">goto<tspan fill="#000000" fill-opacity="1" font-family="Arial,Arial_MSFontService,sans-serif" font-style="normal" font-variant="normal" font-weight="400" font-stretch="normal" font-size="46" text-anchor="start" direction="ltr" writing-mode="lr-tb" unicode-bidi="normal" text-decoration="none" x="-22.9166" y="55">Start 2</tspan></text><path d="M1392.5 1870 1578 1684.5 1763.5 1870 1578 2055.5Z" stroke="#000000" stroke-width="9.16667" stroke-linecap="butt" stroke-linejoin="miter" stroke-miterlimit="8" stroke-opacity="1" fill="none" fill-rule="evenodd"/><text fill="#000000" fill-opacity="1" font-family="Arial,Arial_MSFontService,sans-serif" font-style="normal" font-variant="normal" font-weight="400" font-stretch="normal" font-size="46" text-anchor="start" direction="ltr" writing-mode="lr-tb" unicode-bidi="normal" text-decoration="none" transform="matrix(1 0 0 1 1491.27 1860)">example <tspan fill="#000000" fill-opacity="1" font-family="Arial,Arial_MSFontService,sans-serif" font-style="normal" font-variant="normal" font-weight="400" font-stretch="normal" font-size="46" text-anchor="start" direction="ltr" writing-mode="lr-tb" unicode-bidi="normal" text-decoration="none" x="13.75" y="55">works?</tspan></text><path d="M2022.4 590.5 2022.4 619.647C2022.4 622.178 2020.34 624.231 2017.81 624.231L2017.5 624.231 2022.08 619.647 2022.08 625.877 2012.92 625.877 2012.92 619.647C2012.92 617.116 2014.97 615.064 2017.5 615.064L2017.81 615.064 2013.23 619.647 2013.23 590.5ZM2031.25 621.294 2017.5 648.794 2003.75 621.294Z" fill="#000000" fill-rule="nonzero" fill-opacity="1"/><path d="M1582.4 898.5 1582.4 934.996C1582.4 937.527 1580.34 939.579 1577.81 939.579L1577.5 939.579 1582.08 934.996 1582.08 948.575 1572.92 948.575 1572.92 934.996C1572.92 932.465 1574.97 930.413 1577.5 930.413L1577.81 930.413 1573.23 934.996 1573.23 898.5ZM1591.25 943.992 1577.5 971.492 1563.75 943.992Z" fill="#000000" fill-rule="nonzero" fill-opacity="1"/><path d="M0.0257135-4.58326 27.0966-4.43139 27.0451 4.73514-0.0257135 4.58326ZM22.9457-13.7424 49.9749 0.911253 22.0344 13.7424Z" fill="#000000" fill-rule="nonzero" fill-opacity="1" transform="matrix(1.83697e-16 1 1 -1.83697e-16 2015.5 1222.5)"/><path d="M0-4.58333 54.6514-4.58333C57.1827-4.58333 59.2347-2.53131 59.2347 0L59.2347 0.313255 54.6514-4.27008 86.3861-4.27008 86.3861 4.89659 54.6514 4.89659C52.1201 4.89659 50.068 2.84456 50.068 0.313255L50.068 0 54.6514 4.58333 0 4.58333ZM81.8028-13.4367 109.303 0.313255 81.8028 14.0633Z" fill="#000000" fill-rule="nonzero" fill-opacity="1" transform="matrix(1.83697e-16 1 1 -1.83697e-16 1577.5 1575.5)"/><path d="M2378.5 1858.5C2378.5 1803.82 2423.5 1759.5 2479 1759.5 2534.5 1759.5 2579.5 1803.82 2579.5 1858.5 2579.5 1913.18 2534.5 1957.5 2479 1957.5 2423.5 1957.5 2378.5 1913.18 2378.5 1858.5Z" stroke="#000000" stroke-width="9.16667" stroke-linecap="butt" stroke-linejoin="miter" stroke-miterlimit="8" stroke-opacity="1" fill="none" fill-rule="evenodd"/><text fill="#000000" fill-opacity="1" font-family="Arial,Arial_MSFontService,sans-serif" font-style="normal" font-variant="normal" font-weight="400" font-stretch="normal" font-size="46" text-anchor="start" direction="ltr" writing-mode="lr-tb" unicode-bidi="normal" text-decoration="none" transform="matrix(1 0 0 1 2446.85 1848)">get <tspan fill="#000000" fill-opacity="1" font-family="Arial,Arial_MSFontService,sans-serif" font-style="normal" font-variant="normal" font-weight="400" font-stretch="normal" font-size="46" text-anchor="start" direction="ltr" writing-mode="lr-tb" unicode-bidi="normal" text-decoration="none" x="-11.4583" y="55">help</tspan></text><path d="M2722.5 828.5C2722.5 773.824 2767.5 729.5 2823 729.5 2878.5 729.5 2923.5 773.824 2923.5 828.5 2923.5 883.176 2878.5 927.5 2823 927.5 2767.5 927.5 2722.5 883.176 2722.5 828.5Z" stroke="#000000" stroke-width="9.16667" stroke-linecap="butt" stroke-linejoin="miter" stroke-miterlimit="8" stroke-opacity="1" fill="none" fill-rule="evenodd"/><text fill="#000000" fill-opacity="1" font-family="Arial,Arial_MSFontService,sans-serif" font-style="normal" font-variant="normal" font-weight="400" font-stretch="normal" font-size="46" text-anchor="start" direction="ltr" writing-mode="lr-tb" unicode-bidi="normal" text-decoration="none" transform="matrix(1 0 0 1 2755.66 845)">Start 2</text><path d="M1917.5 299C1917.5 244.6 1962.5 200.5 2018 200.5 2073.5 200.5 2118.5 244.6 2118.5 299 2118.5 353.4 2073.5 397.5 2018 397.5 1962.5 397.5 1917.5 353.4 1917.5 299Z" stroke="#000000" stroke-width="9.16667" stroke-linecap="butt" stroke-linejoin="miter" stroke-miterlimit="8" stroke-opacity="1" fill="none" fill-rule="evenodd"/><text fill="#000000" fill-opacity="1" font-family="Arial,Arial_MSFontService,sans-serif" font-style="normal" font-variant="normal" font-weight="400" font-stretch="normal" font-size="46" text-anchor="start" direction="ltr" writing-mode="lr-tb" unicode-bidi="normal" text-decoration="none" transform="matrix(1 0 0 1 1969.11 316)">Start</text><path d="M1140.5 1870.5C1140.5 1815.82 1185.5 1771.5 1241 1771.5 1296.5 1771.5 1341.5 1815.82 1341.5 1870.5 1341.5 1925.18 1296.5 1969.5 1241 1969.5 1185.5 1969.5 1140.5 1925.18 1140.5 1870.5Z" stroke="#000000" stroke-width="9.16667" stroke-linecap="butt" stroke-linejoin="miter" stroke-miterlimit="8" stroke-opacity="1" fill="none" fill-rule="evenodd"/><text fill="#000000" fill-opacity="1" font-family="Arial,Arial_MSFontService,sans-serif" font-style="normal" font-variant="normal" font-weight="400" font-stretch="normal" font-size="46" text-anchor="start" direction="ltr" writing-mode="lr-tb" unicode-bidi="normal" text-decoration="none" transform="matrix(1 0 0 1 1208.93 1860)">get <tspan fill="#000000" fill-opacity="1" font-family="Arial,Arial_MSFontService,sans-serif" font-style="normal" font-variant="normal" font-weight="400" font-stretch="normal" font-size="46" text-anchor="start" direction="ltr" writing-mode="lr-tb" unicode-bidi="normal" text-decoration="none" x="-11.4584" y="55">help</tspan></text><path d="M2640.5 1857 2826 1671.5 3011.5 1857 2826 2042.5Z" stroke="#000000" stroke-width="9.16667" stroke-linecap="butt" stroke-linejoin="miter" stroke-miterlimit="8" stroke-opacity="1" fill="none" fill-rule="evenodd"/><text fill="#000000" fill-opacity="1" font-family="Arial,Arial_MSFontService,sans-serif" font-style="normal" font-variant="normal" font-weight="400" font-stretch="normal" font-size="46" text-anchor="start" direction="ltr" writing-mode="lr-tb" unicode-bidi="normal" text-decoration="none" transform="matrix(1 0 0 1 2775.8 1846)">co<tspan fill="#000000" fill-opacity="1" font-family="Arial,Arial_MSFontService,sans-serif" font-style="normal" font-variant="normal" font-weight="400" font-stretch="normal" font-size="46" text-anchor="start" direction="ltr" writing-mode="lr-tb" unicode-bidi="normal" text-decoration="none" x="48.125" y="0">de </tspan><tspan fill="#000000" fill-opacity="1" font-family="Arial,Arial_MSFontService,sans-serif" font-style="normal" font-variant="normal" font-weight="400" font-stretch="normal" font-size="46" text-anchor="start" direction="ltr" writing-mode="lr-tb" unicode-bidi="normal" text-decoration="none" x="-23.1917" y="55">works?</tspan></text><path d="M3068.5 1185.5C3068.5 1130.82 3113.27 1086.5 3168.5 1086.5 3223.73 1086.5 3268.5 1130.82 3268.5 1185.5 3268.5 1240.18 3223.73 1284.5 3168.5 1284.5 3113.27 1284.5 3068.5 1240.18 3068.5 1185.5Z" stroke="#000000" stroke-width="9.16667" stroke-linecap="butt" stroke-linejoin="miter" stroke-miterlimit="8" stroke-opacity="1" fill="none" fill-rule="evenodd"/><text fill="#000000" fill-opacity="1" font-family="Arial,Arial_MSFontService,sans-serif" font-style="normal" font-variant="normal" font-weight="400" font-stretch="normal" font-size="46" text-anchor="start" direction="ltr" writing-mode="lr-tb" unicode-bidi="normal" text-decoration="none" transform="matrix(1 0 0 1 3102.18 1203)">solved</text><path d="M3064.5 1856.5C3064.5 1801.82 3109.5 1757.5 3165 1757.5 3220.5 1757.5 3265.5 1801.82 3265.5 1856.5 3265.5 1911.18 3220.5 1955.5 3165 1955.5 3109.5 1955.5 3064.5 1911.18 3064.5 1856.5Z" stroke="#000000" stroke-width="9.16667" stroke-linecap="butt" stroke-linejoin="miter" stroke-miterlimit="8" stroke-opacity="1" fill="none" fill-rule="evenodd"/><text fill="#000000" fill-opacity="1" font-family="Arial,Arial_MSFontService,sans-serif" font-style="normal" font-variant="normal" font-weight="400" font-stretch="normal" font-size="46" text-anchor="start" direction="ltr" writing-mode="lr-tb" unicode-bidi="normal" text-decoration="none" transform="matrix(1 0 0 1 3098.58 1874)">solved</text><path d="M2022.08 397.5 2022.08 437.029 2012.92 437.029 2012.92 397.5ZM2031.25 432.445 2017.5 459.945 2003.75 432.446Z" fill="#000000" fill-rule="nonzero" fill-opacity="1"/><path d="M1832.3 838.742 1787.37 838.306 1787.46 829.139 1832.39 829.575ZM1791.87 847.516 1764.5 833.5 1792.13 820.018Z" fill="#000000" fill-rule="nonzero" fill-opacity="1"/><path d="M0.0524655-4.58303 22.4301-4.32686 22.3251 4.83921-0.0524655 4.58303ZM18.5699-13.7285 45.2584 1.53704 17.0329 13.7285Z" fill="#000000" fill-rule="nonzero" fill-opacity="1" transform="matrix(1.83697e-16 1 1 -1.83697e-16 2016.5 1401.5)"/><path d="M1763.5 1151.92 1796.51 1151.92C1799.04 1151.92 1801.1 1153.97 1801.1 1156.5L1801.1 1156.76 1796.51 1152.18 1806.61 1152.18 1806.61 1161.35 1796.51 1161.35C1793.98 1161.35 1791.93 1159.3 1791.93 1156.76L1791.93 1156.5 1796.51 1161.08 1763.5 1161.08ZM1802.03 1143.01 1829.53 1156.76 1802.03 1170.51Z" fill="#000000" fill-rule="nonzero" fill-opacity="1"/><path d="M1392.72 1875.08 1364.42 1875.08 1364.42 1865.92 1392.72 1865.92ZM1369 1884.25 1341.5 1870.5 1369 1856.75Z" fill="#000000" fill-rule="nonzero" fill-opacity="1"/><path d="M3.22918e-05-4.58333 28.3066-4.58313 28.3066 4.58353-3.22918e-05 4.58333ZM23.7234-13.7498 51.2233 0.000360892 23.7232 13.7502Z" fill="#000000" fill-rule="nonzero" fill-opacity="1" transform="matrix(1 0 0 -1 1763.5 1870.5)"/><path d="M4.58331-0.0139276 4.82729 80.2746-4.33933 80.3025-4.58331 0.0139276ZM13.98 75.6635 0.313615 103.205-13.5199 75.747Z" fill="#000000" fill-rule="nonzero" fill-opacity="1" transform="matrix(-1 0 0 1 1577.81 1342.5)"/><path d="M2263.5 831.5C2263.5 776.824 2308.5 732.5 2364 732.5 2419.5 732.5 2464.5 776.824 2464.5 831.5 2464.5 886.176 2419.5 930.5 2364 930.5 2308.5 930.5 2263.5 886.176 2263.5 831.5Z" stroke="#000000" stroke-width="9.16667" stroke-linecap="butt" stroke-linejoin="miter" stroke-miterlimit="8" stroke-opacity="1" fill="none" fill-rule="evenodd"/><text fill="#000000" fill-opacity="1" font-family="Arial,Arial_MSFontService,sans-serif" font-style="normal" font-variant="normal" font-weight="400" font-stretch="normal" font-size="46" text-anchor="start" direction="ltr" writing-mode="lr-tb" unicode-bidi="normal" text-decoration="none" transform="matrix(1 0 0 1 2319.19 821)">goto<tspan fill="#000000" fill-opacity="1" font-family="Arial,Arial_MSFontService,sans-serif" font-style="normal" font-variant="normal" font-weight="400" font-stretch="normal" font-size="46" text-anchor="start" direction="ltr" writing-mode="lr-tb" unicode-bidi="normal" text-decoration="none" x="-22.9167" y="55">Start 2</tspan></text><path d="M0.197289-4.57909 37.8542-2.95664 37.4596 6.20153-0.197289 4.57909ZM33.6697-12.3121 60.5523 2.60889 32.4859 15.1624Z" fill="#000000" fill-rule="nonzero" fill-opacity="1" transform="matrix(1 0 0 -1 2202.5 834.109)"/><path d="M2828.08 927.5 2828.08 978.492 2818.92 978.492 2818.92 927.5ZM2837.25 973.909 2823.5 1001.41 2809.75 973.909Z" fill="#000000" fill-rule="nonzero" fill-opacity="1"/><path d="M2828.08 1372.48 2828.31 1433.35 2819.14 1433.38 2818.92 1372.52ZM2837.46 1428.73 2823.81 1456.28 2809.96 1428.83Z" fill="#000000" fill-rule="nonzero" fill-opacity="1"/><path d="M2828.08 1585.39 2829.6 1647.85 2820.44 1648.07 2818.92 1585.61ZM2838.66 1643.04 2825.58 1670.87 2811.16 1643.71Z" fill="#000000" fill-rule="nonzero" fill-opacity="1"/><path d="M0.0778259-4.58267 36.7088-3.96058 36.5532 5.20476-0.0778259 4.58267ZM32.2818-13.2038 59.5444 1.01122 31.8148 14.2923Z" fill="#000000" fill-rule="nonzero" fill-opacity="1" transform="matrix(1 0 0 -1 3008.5 1186.51)"/><path d="M3.08879e-05-4.58333 30.6347-4.58313 30.6347 4.58354-3.08879e-05 4.58333ZM26.0515-13.7498 53.5514 0.000360892 26.0513 13.7502Z" fill="#000000" fill-rule="nonzero" fill-opacity="1" transform="matrix(1 0 0 -1 3011.5 1856.5)"/><path d="M0.130105-4.58149 38.1211-3.50262 37.8609 5.66036-0.130105 4.58149ZM33.7998-12.7957 60.8984 1.7294 33.0192 14.6932Z" fill="#000000" fill-rule="nonzero" fill-opacity="1" transform="matrix(-1 0 0 1 2640.4 1856.5)"/><text fill="#000000" fill-opacity="1" font-family="Arial,Arial_MSFontService,sans-serif" font-style="normal" font-variant="normal" font-weight="400" font-stretch="normal" font-size="37" text-anchor="start" direction="ltr" writing-mode="lr-tb" unicode-bidi="normal" text-decoration="none" transform="matrix(1 0 0 1 2998.67 1160)">yes<tspan fill="#000000" fill-opacity="1" font-family="Arial,Arial_MSFontService,sans-serif" font-style="normal" font-variant="normal" font-weight="400" font-stretch="normal" font-size="37" text-anchor="start" direction="ltr" writing-mode="lr-tb" unicode-bidi="normal" text-decoration="none" x="0" y="667">yes</tspan><tspan fill="#000000" fill-opacity="1" font-family="Arial,Arial_MSFontService,sans-serif" font-style="normal" font-variant="normal" font-weight="400" font-stretch="normal" font-size="37" text-anchor="start" direction="ltr" writing-mode="lr-tb" unicode-bidi="normal" text-decoration="none" x="-1242.32" y="-34">yes</tspan><tspan fill="#000000" fill-opacity="1" font-family="Arial,Arial_MSFontService,sans-serif" font-style="normal" font-variant="normal" font-weight="400" font-stretch="normal" font-size="37" text-anchor="start" direction="ltr" writing-mode="lr-tb" unicode-bidi="normal" text-decoration="none" x="-1252.26" y="674">yes</tspan><tspan fill="#000000" fill-opacity="1" font-family="Arial,Arial_MSFontService,sans-serif" font-style="normal" font-variant="normal" font-weight="400" font-stretch="normal" font-size="37" text-anchor="start" direction="ltr" writing-mode="lr-tb" unicode-bidi="normal" text-decoration="none" x="-1481.03" y="230">no</tspan><tspan fill="#000000" fill-opacity="1" font-family="Arial,Arial_MSFontService,sans-serif" font-style="normal" font-variant="normal" font-weight="400" font-stretch="normal" font-size="37" text-anchor="start" direction="ltr" writing-mode="lr-tb" unicode-bidi="normal" text-decoration="none" x="-1210.32" y="-348">no</tspan><tspan fill="#000000" fill-opacity="1" font-family="Arial,Arial_MSFontService,sans-serif" font-style="normal" font-variant="normal" font-weight="400" font-stretch="normal" font-size="37" text-anchor="start" direction="ltr" writing-mode="lr-tb" unicode-bidi="normal" text-decoration="none" x="-402.412" y="667">no</tspan><tspan fill="#000000" fill-opacity="1" font-family="Arial,Arial_MSFontService,sans-serif" font-style="normal" font-variant="normal" font-weight="400" font-stretch="normal" font-size="37" text-anchor="start" direction="ltr" writing-mode="lr-tb" unicode-bidi="normal" text-decoration="none" x="-158.649" y="248">no</tspan></text></g></svg>