<svg width="3543" height="2040" xmlns="http://www.w3.org/2000/svg" xmlns:xlink="http://www.w3.org/1999/xlink" xml:space="preserve" overflow="hidden"><defs><clipPath id="clip0"><rect x="875" y="412" width="3543" height="2040"/></clipPath></defs><g clip-path="url(#clip0)" transform="translate(-875 -412)"><rect x="1522.5" y="417.5" width="772" height="488" stroke="#FFFFFF" stroke-width="9.16667" stroke-linecap="butt" stroke-linejoin="miter" stroke-miterlimit="8" stroke-dasharray="36.6667 27.5" stroke-opacity="1" fill="#333333" fill-opacity="1"/><rect x="2369.5" y="417.5" width="1482" height="488" stroke="#FFFFFF" stroke-width="9.16667" stroke-linecap="butt" stroke-linejoin="miter" stroke-miterlimit="8" stroke-dasharray="36.6667 27.5" stroke-opacity="1" fill="#333333" fill-opacity="1"/><rect x="1971.5" y="2168.5" width="562" height="276" stroke="#FFFFFF" stroke-width="9.16667" stroke-linecap="butt" stroke-linejoin="miter" stroke-miterlimit="8" stroke-opacity="1" fill="none"/><text fill="#FFFFFF" fill-opacity="1" font-family="Arial,Arial_MSFontService,sans-serif" font-style="normal" font-variant="normal" font-weight="400" font-stretch="normal" font-size="83" text-anchor="start" direction="ltr" writing-mode="lr-tb" unicode-bidi="normal" text-decoration="none" transform="matrix(1 0 0 1 2036.47 2337)">connectivity</text><rect x="1971.5" y="1671.5" width="562" height="276" stroke="#FFFFFF" stroke-width="9.16667" stroke-linecap="butt" stroke-linejoin="miter" stroke-miterlimit="8" stroke-opacity="1" fill="none"/><text fill="#FFFFFF" fill-opacity="1" font-family="Arial,Arial_MSFontService,sans-serif" font-style="normal" font-variant="normal" font-weight="400" font-stretch="normal" font-size="83" text-anchor="start" direction="ltr" writing-mode="lr-tb" unicode-bidi="normal" text-decoration="none" transform="matrix(1 0 0 1 2073.14 1840)">http<tspan fill="#FFFFFF" fill-opacity="1" font-family="Arial,Arial_MSFontService,sans-serif" font-style="normal" font-variant="normal" font-weight="400" font-stretch="normal" font-size="83" text-anchor="start" direction="ltr" writing-mode="lr-tb" unicode-bidi="normal" text-decoration="none" x="137.5" y="0">-</tspan>client</text><rect x="3143.5" y="1111.5" width="562" height="276" stroke="#FFFFFF" stroke-width="9.16667" stroke-linecap="butt" stroke-linejoin="miter" stroke-miterlimit="8" stroke-opacity="1" fill="none"/><text fill="#FFFFFF" fill-opacity="1" font-family="Arial,Arial_MSFontService,sans-serif" font-style="normal" font-variant="normal" font-weight="400" font-stretch="normal" font-size="83" text-anchor="start" direction="ltr" writing-mode="lr-tb" unicode-bidi="normal" text-decoration="none" transform="matrix(1 0 0 1 3263.55 1280)">o<tspan fill="#FFFFFF" fill-opacity="1" font-family="Arial,Arial_MSFontService,sans-serif" font-style="normal" font-variant="normal" font-weight="400" font-stretch="normal" font-size="83" text-anchor="start" direction="ltr" writing-mode="lr-tb" unicode-bidi="normal" text-decoration="none" x="45.8333" y="0">data</tspan><tspan fill="#FFFFFF" fill-opacity="1" font-family="Arial,Arial_MSFontService,sans-serif" font-style="normal" font-variant="normal" font-weight="400" font-stretch="normal" font-size="83" text-anchor="start" direction="ltr" writing-mode="lr-tb" unicode-bidi="normal" text-decoration="none" x="206.25" y="0">-</tspan>v2</text><rect x="2435.5" y="1113.5" width="562" height="276" stroke="#FFFFFF" stroke-width="9.16667" stroke-linecap="butt" stroke-linejoin="miter" stroke-miterlimit="8" stroke-opacity="1" fill="none"/><text fill="#FFFFFF" fill-opacity="1" font-family="Arial,Arial_MSFontService,sans-serif" font-style="normal" font-variant="normal" font-weight="400" font-stretch="normal" font-size="83" text-anchor="start" direction="ltr" writing-mode="lr-tb" unicode-bidi="normal" text-decoration="none" transform="matrix(1 0 0 1 2555.26 1282)">o<tspan fill="#FFFFFF" fill-opacity="1" font-family="Arial,Arial_MSFontService,sans-serif" font-style="normal" font-variant="normal" font-weight="400" font-stretch="normal" font-size="83" text-anchor="start" direction="ltr" writing-mode="lr-tb" unicode-bidi="normal" text-decoration="none" x="45.8333" y="0">data</tspan><tspan fill="#FFFFFF" fill-opacity="1" font-family="Arial,Arial_MSFontService,sans-serif" font-style="normal" font-variant="normal" font-weight="400" font-stretch="normal" font-size="83" text-anchor="start" direction="ltr" writing-mode="lr-tb" unicode-bidi="normal" text-decoration="none" x="206.25" y="0">-</tspan>v4</text><rect x="1589.5" y="1114.5" width="561" height="276" stroke="#FFFFFF" stroke-width="9.16667" stroke-linecap="butt" stroke-linejoin="miter" stroke-miterlimit="8" stroke-opacity="1" fill="none"/><text fill="#FFFFFF" fill-opacity="1" font-family="Arial,Arial_MSFontService,sans-serif" font-style="normal" font-variant="normal" font-weight="400" font-stretch="normal" font-size="83" text-anchor="start" direction="ltr" writing-mode="lr-tb" unicode-bidi="normal" text-decoration="none" transform="matrix(1 0 0 1 1722.69 1282)">openapi</text><rect x="3851.5" y="1114.5" width="562" height="276" stroke="#FFFFFF" stroke-width="9.16667" stroke-linecap="butt" stroke-linejoin="miter" stroke-miterlimit="8" stroke-opacity="1" fill="none"/><text fill="#FFFFFF" fill-opacity="1" font-family="Arial,Arial_MSFontService,sans-serif" font-style="normal" font-variant="normal" font-weight="400" font-stretch="normal" font-size="83" text-anchor="start" direction="ltr" writing-mode="lr-tb" unicode-bidi="normal" text-decoration="none" transform="matrix(1 0 0 1 3955.67 1282)">generator</text><rect x="880.5" y="1114.5" width="562" height="276" stroke="#FFFFFF" stroke-width="9.16667" stroke-linecap="butt" stroke-linejoin="miter" stroke-miterlimit="8" stroke-opacity="1" fill="none"/><text fill="#FFFFFF" fill-opacity="1" font-family="Arial,Arial_MSFontService,sans-serif" font-style="normal" font-variant="normal" font-weight="400" font-stretch="normal" font-size="83" text-anchor="start" direction="ltr" writing-mode="lr-tb" unicode-bidi="normal" text-decoration="none" transform="matrix(1 0 0 1 1000.64 1233)">openapi-<tspan fill="#FFFFFF" fill-opacity="1" font-family="Arial,Arial_MSFontService,sans-serif" font-style="normal" font-variant="normal" font-weight="400" font-stretch="normal" font-size="83" text-anchor="start" direction="ltr" writing-mode="lr-tb" unicode-bidi="normal" text-decoration="none" x="-16.0416" y="99">generator</tspan></text><path d="M0 0 0.136056 59.3968" stroke="#FFFFFF" stroke-width="9.16667" stroke-linecap="butt" stroke-linejoin="round" stroke-miterlimit="10" stroke-opacity="1" fill="none" fill-rule="evenodd" transform="matrix(1 0 0 -1 2252.5 2168.9)"/><path d="M2252.64 2013.3 2252.5 1947.5" stroke="#FFFFFF" stroke-width="9.16667" stroke-linecap="butt" stroke-linejoin="round" stroke-miterlimit="10" stroke-opacity="1" fill="none" fill-rule="evenodd"/><path d="M2252.5 1516.02 2252.5 1452.76 2716.15 1452.76 2716.15 1389.5" stroke="#FFFFFF" stroke-width="9.16667" stroke-linecap="butt" stroke-linejoin="round" stroke-miterlimit="10" stroke-opacity="1" fill="none" fill-rule="evenodd"/><path d="M3424.44 1387.5 3424.44 1453.66 2252.5 1453.66 2252.5 1516.08" stroke="#FFFFFF" stroke-width="9.16667" stroke-linecap="butt" stroke-linejoin="round" stroke-miterlimit="10" stroke-opacity="1" fill="none" fill-rule="evenodd"/><path d="M0-4.58333 36.6667-4.58333 36.6667 4.58333 0 4.58333ZM64.1667-4.58333 100.833-4.58333 100.833 4.58333 64.1667 4.58333ZM128.333-4.58333 165-4.58333 165 4.58333 128.333 4.58333ZM192.5-4.58333 229.167-4.58333 229.167 4.58333 192.5 4.58333ZM256.667-4.58333 293.333-4.58333 293.333 4.58333 256.667 4.58333ZM320.833-4.58333 357.5-4.58333 357.5 4.58333 320.833 4.58333ZM385-4.58333 421.667-4.58333 421.667 4.58333 385 4.58333ZM449.167-4.58333 452.64-4.58333C455.172-4.58333 457.224-2.53131 457.224 0L457.224 33.1931 448.057 33.1931 448.057 0 452.64 4.58333 449.167 4.58333ZM457.224 60.6931 457.224 97.3597 448.057 97.3597 448.057 60.6931ZM457.224 124.86 457.224 161.526 448.057 161.526 448.057 124.86ZM457.224 189.026 457.224 225.693 448.057 225.693 448.057 189.026ZM457.224 253.193 457.224 272.008 448.057 272.008 448.057 253.193ZM472.641 246.817 452.64 281.104 432.64 246.817C431.364 244.631 432.103 241.824 434.289 240.549 436.476 239.273 439.282 240.012 440.558 242.198L456.599 269.698 448.681 269.698 464.723 242.198C465.998 240.012 468.805 239.273 470.991 240.549 473.178 241.824 473.916 244.631 472.641 246.817Z" fill="#FFFFFF" fill-rule="nonzero" fill-opacity="1" transform="matrix(-1.83697e-16 -1 -1 1.83697e-16 4132.58 1114.14)"/><path d="M1156.92 1114.27 1156.92 1077.61 1166.08 1077.61 1166.08 1114.27ZM1156.92 1050.11 1156.92 1013.44 1166.08 1013.44 1166.08 1050.11ZM1156.92 985.939 1156.92 949.272 1166.08 949.272 1166.08 985.939ZM1156.92 921.772 1156.92 885.105 1166.08 885.105 1166.08 921.772ZM1156.92 857.605 1156.92 820.939 1166.08 820.939 1166.08 857.605ZM1156.92 793.439 1156.92 756.772 1166.08 756.772 1166.08 793.439ZM1156.92 729.272 1156.92 692.605 1166.08 692.605 1166.08 729.272ZM1156.92 665.105 1156.92 661.5C1156.92 658.969 1158.97 656.917 1161.5 656.917L1194.56 656.917 1194.56 666.083 1161.5 666.083 1166.08 661.5 1166.08 665.105ZM1222.06 656.917 1258.73 656.917 1258.73 666.083 1222.06 666.083ZM1286.23 656.917 1322.89 656.917 1322.89 666.083 1286.23 666.083ZM1350.39 656.917 1387.06 656.917 1387.06 666.083 1350.39 666.083ZM1414.56 656.917 1451.23 656.917 1451.23 666.083 1414.56 666.083ZM1478.73 656.917 1513.26 656.917 1513.26 666.083 1478.73 666.083ZM1488.07 641.499 1522.36 661.5 1488.07 681.501C1485.88 682.776 1483.08 682.037 1481.8 679.851 1480.52 677.664 1481.26 674.858 1483.45 673.583L1510.95 657.541 1510.95 665.459 1483.45 649.417C1481.26 648.142 1480.52 645.335 1481.8 643.149 1483.08 640.962 1485.88 640.224 1488.07 641.499Z" fill="#FFFFFF" fill-rule="nonzero" fill-opacity="1"/><path d="M3424.5 1112.21 3424.5 1040.5" stroke="#FFFFFF" stroke-width="9.16667" stroke-linecap="butt" stroke-linejoin="round" stroke-miterlimit="10" stroke-opacity="1" fill="none" fill-rule="evenodd"/><path d="M0 0 0.125591 62.2731" stroke="#FFFFFF" stroke-width="9.16667" stroke-linecap="butt" stroke-linejoin="round" stroke-miterlimit="10" stroke-opacity="1" fill="none" fill-rule="evenodd" transform="matrix(1 0 0 -1 2716.5 1113.77)"/><path d="M0 0 0.000360892 61.5022" stroke="#FFFFFF" stroke-width="9.16667" stroke-linecap="butt" stroke-linejoin="round" stroke-miterlimit="10" stroke-opacity="1" fill="none" fill-rule="evenodd" transform="matrix(1 0 0 -1 1869.5 1114)"/><path d="M0 0 0.713123 236.162" stroke="#FFFFFF" stroke-width="9.16667" stroke-linecap="butt" stroke-linejoin="round" stroke-miterlimit="10" stroke-opacity="1" fill="none" fill-rule="evenodd" transform="matrix(1 0 0 -1 2716.5 955.662)"/><path d="M1868.5 838.5 1869.41 956.432" stroke="#FFFFFF" stroke-width="9.16667" stroke-linecap="butt" stroke-linejoin="round" stroke-miterlimit="10" stroke-opacity="1" fill="none" fill-rule="evenodd"/><path d="M3424.4 953.016 3423.5 839.5" stroke="#FFFFFF" stroke-width="9.16667" stroke-linecap="butt" stroke-linejoin="round" stroke-miterlimit="10" stroke-opacity="1" fill="none" fill-rule="evenodd"/><text fill="#FFFFFF" fill-opacity="1" font-family="Arial,Arial_MSFontService,sans-serif" font-style="italic" font-variant="normal" font-weight="400" font-stretch="normal" font-size="83" text-anchor="start" direction="ltr" writing-mode="lr-tb" unicode-bidi="normal" text-decoration="none" transform="matrix(1 0 0 1 1203.31 988)">generates</text><path d="M0 0 63.0315 0 63.0315 382.672 126.063 382.672" stroke="#FFFFFF" stroke-width="9.16667" stroke-linecap="butt" stroke-linejoin="round" stroke-miterlimit="10" stroke-opacity="1" fill="none" fill-rule="evenodd" transform="matrix(1.83697e-16 1 1 -1.83697e-16 1869.5 1390.5)"/><path d="M2309 1573.08 2299.93 1573.08C2299.93 1546.57 2278.47 1525.08 2252 1525.08 2225.53 1525.08 2204.07 1546.57 2204.07 1573.08L2195 1573.08C2195 1541.56 2220.52 1516 2252 1516 2283.48 1516 2309 1541.56 2309 1573.08ZM2252 1602.96C2268.49 1602.96 2281.87 1589.59 2281.87 1573.08 2281.87 1556.58 2268.49 1543.2 2252 1543.2 2235.51 1543.2 2222.13 1556.58 2222.13 1573.08 2222.13 1589.59 2235.51 1602.96 2252 1602.96ZM2252 1612C2230.48 1612 2213.04 1594.58 2213.04 1573.08 2213.04 1551.59 2230.48 1534.16 2252 1534.16 2273.52 1534.16 2290.96 1551.59 2290.96 1573.08 2290.96 1594.58 2273.52 1612 2252 1612Z" fill="#FFFFFF" fill-rule="evenodd" fill-opacity="1"/><path d="M0 0 0.136056 59.6472" stroke="#FFFFFF" stroke-width="9.16667" stroke-linecap="butt" stroke-linejoin="round" stroke-miterlimit="10" stroke-opacity="1" fill="none" fill-rule="evenodd" transform="matrix(1 0 0 -1 2252.5 1672.15)"/><path d="M2309 2070.08 2299.93 2070.08C2299.93 2043.57 2278.47 2022.08 2252 2022.08 2225.53 2022.08 2204.07 2043.57 2204.07 2070.08L2195 2070.08C2195 2038.56 2220.52 2013 2252 2013 2283.48 2013 2309 2038.56 2309 2070.08ZM2252 2099.96C2268.49 2099.96 2281.87 2086.59 2281.87 2070.08 2281.87 2053.58 2268.49 2040.2 2252 2040.2 2235.51 2040.2 2222.13 2053.58 2222.13 2070.08 2222.13 2086.59 2235.51 2099.96 2252 2099.96ZM2252 2109C2230.48 2109 2213.04 2091.58 2213.04 2070.08 2213.04 2048.59 2230.48 2031.16 2252 2031.16 2273.52 2031.16 2290.96 2048.59 2290.96 2070.08 2290.96 2091.58 2273.52 2109 2252 2109Z" fill="#FFFFFF" fill-rule="evenodd" fill-opacity="1"/><path d="M3481 1010.08 3471.93 1010.08C3471.93 983.571 3450.47 962.081 3424 962.081 3397.53 962.081 3376.07 983.571 3376.07 1010.08L3367 1010.08C3367 978.556 3392.52 953 3424 953 3455.48 953 3481 978.556 3481 1010.08ZM3424 1039.96C3440.49 1039.96 3453.87 1026.59 3453.87 1010.08 3453.87 993.577 3440.49 980.198 3424 980.198 3407.51 980.198 3394.13 993.577 3394.13 1010.08 3394.13 1026.59 3407.51 1039.96 3424 1039.96ZM3424 1049C3402.49 1049 3385.04 1031.58 3385.04 1010.08 3385.04 988.587 3402.49 971.162 3424 971.162 3445.52 971.162 3462.96 988.587 3462.96 1010.08 3462.96 1031.58 3445.52 1049 3424 1049Z" fill="#FFFFFF" fill-rule="evenodd" fill-opacity="1"/><path d="M2773 1012.08 2763.93 1012.08C2763.93 985.571 2742.47 964.081 2716 964.081 2689.53 964.081 2668.07 985.571 2668.07 1012.08L2659 1012.08C2659 980.556 2684.52 955 2716 955 2747.48 955 2773 980.556 2773 1012.08ZM2716 1041.96C2732.49 1041.96 2745.87 1028.59 2745.87 1012.08 2745.87 995.577 2732.49 982.198 2716 982.198 2699.51 982.198 2686.13 995.577 2686.13 1012.08 2686.13 1028.59 2699.51 1041.96 2716 1041.96ZM2716 1051C2694.48 1051 2677.04 1033.58 2677.04 1012.08 2677.04 990.587 2694.48 973.162 2716 973.162 2737.52 973.162 2754.96 990.587 2754.96 1012.08 2754.96 1033.58 2737.52 1051 2716 1051Z" fill="#FFFFFF" fill-rule="evenodd" fill-opacity="1"/><path d="M1926 1013.08 1916.93 1013.08C1916.93 986.571 1895.47 965.081 1869 965.081 1842.53 965.081 1821.07 986.571 1821.07 1013.08L1812 1013.08C1812 981.556 1837.52 956 1869 956 1900.48 956 1926 981.556 1926 1013.08ZM1869 1042.96C1885.49 1042.96 1898.87 1029.59 1898.87 1013.08 1898.87 996.577 1885.49 983.198 1869 983.198 1852.51 983.198 1839.13 996.577 1839.13 1013.08 1839.13 1029.59 1852.51 1042.96 1869 1042.96ZM1869 1052C1847.48 1052 1830.04 1034.58 1830.04 1013.08 1830.04 991.587 1847.48 974.162 1869 974.162 1890.52 974.162 1907.96 991.587 1907.96 1013.08 1907.96 1034.58 1890.52 1052 1869 1052Z" fill="#FFFFFF" fill-rule="evenodd" fill-opacity="1"/><text fill="#FFFFFF" fill-opacity="1" font-family="Arial,Arial_MSFontService,sans-serif" font-style="italic" font-variant="normal" font-weight="400" font-stretch="normal" font-size="83" text-anchor="start" direction="ltr" writing-mode="lr-tb" unicode-bidi="normal" text-decoration="none" transform="matrix(1 0 0 1 3729.03 988)">generates</text><rect x="1667.5" y="479.5" width="562" height="276" stroke="#FFFFFF" stroke-width="9.16667" stroke-linecap="butt" stroke-linejoin="miter" stroke-miterlimit="8" stroke-opacity="1" fill="#000000" fill-opacity="1"/><text fill="#FFFFFF" fill-opacity="1" font-family="Arial,Arial_MSFontService,sans-serif" font-style="normal" font-variant="normal" font-weight="400" font-stretch="normal" font-size="83" text-anchor="start" direction="ltr" writing-mode="lr-tb" unicode-bidi="normal" text-decoration="none" transform="matrix(1 0 0 1 1780.66 598)">OpenAPI<tspan fill="#FFFFFF" fill-opacity="1" font-family="Arial,Arial_MSFontService,sans-serif" font-style="normal" font-variant="normal" font-weight="400" font-stretch="normal" font-size="83" text-anchor="start" direction="ltr" writing-mode="lr-tb" unicode-bidi="normal" text-decoration="none" x="71.0416" y="99">client</tspan></text><rect x="1628.5" y="518.5" width="562" height="276" stroke="#FFFFFF" stroke-width="9.16667" stroke-linecap="butt" stroke-linejoin="miter" stroke-miterlimit="8" stroke-opacity="1" fill="#000000" fill-opacity="1"/><text fill="#FFFFFF" fill-opacity="1" font-family="Arial,Arial_MSFontService,sans-serif" font-style="normal" font-variant="normal" font-weight="400" font-stretch="normal" font-size="83" text-anchor="start" direction="ltr" writing-mode="lr-tb" unicode-bidi="normal" text-decoration="none" transform="matrix(1 0 0 1 1742.02 637)">OpenAPI<tspan fill="#FFFFFF" fill-opacity="1" font-family="Arial,Arial_MSFontService,sans-serif" font-style="normal" font-variant="normal" font-weight="400" font-stretch="normal" font-size="83" text-anchor="start" direction="ltr" writing-mode="lr-tb" unicode-bidi="normal" text-decoration="none" x="71.0418" y="99">client</tspan></text><rect x="1588.5" y="563.5" width="561" height="275" stroke="#FFFFFF" stroke-width="9.16667" stroke-linecap="butt" stroke-linejoin="miter" stroke-miterlimit="8" stroke-opacity="1" fill="#000000" fill-opacity="1"/><text fill="#FFFFFF" fill-opacity="1" font-family="Arial,Arial_MSFontService,sans-serif" font-style="normal" font-variant="normal" font-weight="400" font-stretch="normal" font-size="83" text-anchor="start" direction="ltr" writing-mode="lr-tb" unicode-bidi="normal" text-decoration="none" transform="matrix(1 0 0 1 1701.15 681)">OpenAPI<tspan fill="#FFFFFF" fill-opacity="1" font-family="Arial,Arial_MSFontService,sans-serif" font-style="normal" font-variant="normal" font-weight="400" font-stretch="normal" font-size="83" text-anchor="start" direction="ltr" writing-mode="lr-tb" unicode-bidi="normal" text-decoration="none" x="50.4168" y="99">clients</tspan></text><rect x="3222.5" y="480.5" width="561" height="275" stroke="#FFFFFF" stroke-width="9.16667" stroke-linecap="butt" stroke-linejoin="miter" stroke-miterlimit="8" stroke-opacity="1" fill="#000000" fill-opacity="1"/><text fill="#FFFFFF" fill-opacity="1" font-family="Arial,Arial_MSFontService,sans-serif" font-style="normal" font-variant="normal" font-weight="400" font-stretch="normal" font-size="83" text-anchor="start" direction="ltr" writing-mode="lr-tb" unicode-bidi="normal" text-decoration="none" transform="matrix(1 0 0 1 3335.29 599)">OpenAPI<tspan fill="#FFFFFF" fill-opacity="1" font-family="Arial,Arial_MSFontService,sans-serif" font-style="normal" font-variant="normal" font-weight="400" font-stretch="normal" font-size="83" text-anchor="start" direction="ltr" writing-mode="lr-tb" unicode-bidi="normal" text-decoration="none" x="71.0418" y="99">client</tspan></text><rect x="3183.5" y="519.5" width="562" height="276" stroke="#FFFFFF" stroke-width="9.16667" stroke-linecap="butt" stroke-linejoin="miter" stroke-miterlimit="8" stroke-opacity="1" fill="#000000" fill-opacity="1"/><text fill="#FFFFFF" fill-opacity="1" font-family="Arial,Arial_MSFontService,sans-serif" font-style="normal" font-variant="normal" font-weight="400" font-stretch="normal" font-size="83" text-anchor="start" direction="ltr" writing-mode="lr-tb" unicode-bidi="normal" text-decoration="none" transform="matrix(1 0 0 1 3296.65 638)">OpenAPI<tspan fill="#FFFFFF" fill-opacity="1" font-family="Arial,Arial_MSFontService,sans-serif" font-style="normal" font-variant="normal" font-weight="400" font-stretch="normal" font-size="83" text-anchor="start" direction="ltr" writing-mode="lr-tb" unicode-bidi="normal" text-decoration="none" x="71.0418" y="99">client</tspan></text><rect x="3142.5" y="563.5" width="562" height="276" stroke="#FFFFFF" stroke-width="9.16667" stroke-linecap="butt" stroke-linejoin="miter" stroke-miterlimit="8" stroke-opacity="1" fill="#000000" fill-opacity="1"/><text fill="#FFFFFF" fill-opacity="1" font-family="Arial,Arial_MSFontService,sans-serif" font-style="normal" font-variant="normal" font-weight="400" font-stretch="normal" font-size="83" text-anchor="start" direction="ltr" writing-mode="lr-tb" unicode-bidi="normal" text-decoration="none" transform="matrix(1 0 0 1 3248.9 682)">OData v2 <tspan fill="#FFFFFF" fill-opacity="1" font-family="Arial,Arial_MSFontService,sans-serif" font-style="normal" font-variant="normal" font-weight="400" font-stretch="normal" font-size="83" text-anchor="start" direction="ltr" writing-mode="lr-tb" unicode-bidi="normal" text-decoration="none" x="57.2918" y="99">clients</tspan></text><rect x="2515.5" y="478.5" width="562" height="276" stroke="#FFFFFF" stroke-width="9.16667" stroke-linecap="butt" stroke-linejoin="miter" stroke-miterlimit="8" stroke-opacity="1" fill="#000000" fill-opacity="1"/><text fill="#FFFFFF" fill-opacity="1" font-family="Arial,Arial_MSFontService,sans-serif" font-style="normal" font-variant="normal" font-weight="400" font-stretch="normal" font-size="83" text-anchor="start" direction="ltr" writing-mode="lr-tb" unicode-bidi="normal" text-decoration="none" transform="matrix(1 0 0 1 2628.74 597)">OpenAPI<tspan fill="#FFFFFF" fill-opacity="1" font-family="Arial,Arial_MSFontService,sans-serif" font-style="normal" font-variant="normal" font-weight="400" font-stretch="normal" font-size="83" text-anchor="start" direction="ltr" writing-mode="lr-tb" unicode-bidi="normal" text-decoration="none" x="71.0415" y="99">client</tspan></text><rect x="2477.5" y="518.5" width="561" height="275" stroke="#FFFFFF" stroke-width="9.16667" stroke-linecap="butt" stroke-linejoin="miter" stroke-miterlimit="8" stroke-opacity="1" fill="#000000" fill-opacity="1"/><text fill="#FFFFFF" fill-opacity="1" font-family="Arial,Arial_MSFontService,sans-serif" font-style="normal" font-variant="normal" font-weight="400" font-stretch="normal" font-size="83" text-anchor="start" direction="ltr" writing-mode="lr-tb" unicode-bidi="normal" text-decoration="none" transform="matrix(1 0 0 1 2590.1 637)">OpenAPI<tspan fill="#FFFFFF" fill-opacity="1" font-family="Arial,Arial_MSFontService,sans-serif" font-style="normal" font-variant="normal" font-weight="400" font-stretch="normal" font-size="83" text-anchor="start" direction="ltr" writing-mode="lr-tb" unicode-bidi="normal" text-decoration="none" x="71.0418" y="99">client</tspan></text><rect x="2436.5" y="562.5" width="561" height="276" stroke="#FFFFFF" stroke-width="9.16667" stroke-linecap="butt" stroke-linejoin="miter" stroke-miterlimit="8" stroke-opacity="1" fill="#000000" fill-opacity="1"/><text fill="#FFFFFF" fill-opacity="1" font-family="Arial,Arial_MSFontService,sans-serif" font-style="normal" font-variant="normal" font-weight="400" font-stretch="normal" font-size="83" text-anchor="start" direction="ltr" writing-mode="lr-tb" unicode-bidi="normal" text-decoration="none" transform="matrix(1 0 0 1 2542.35 681)">OData v4 <tspan fill="#FFFFFF" fill-opacity="1" font-family="Arial,Arial_MSFontService,sans-serif" font-style="normal" font-variant="normal" font-weight="400" font-stretch="normal" font-size="83" text-anchor="start" direction="ltr" writing-mode="lr-tb" unicode-bidi="normal" text-decoration="none" x="57.2918" y="99">clients</tspan></text></g></svg>